<?xml version="1.0" encoding="UTF-8" standalone="no"?>
<!-- Created with Inkscape (http://www.inkscape.org/) -->

<svg
   xmlns:dc="http://purl.org/dc/elements/1.1/"
   xmlns:cc="http://creativecommons.org/ns#"
   xmlns:rdf="http://www.w3.org/1999/02/22-rdf-syntax-ns#"
   xmlns:svg="http://www.w3.org/2000/svg"
   xmlns="http://www.w3.org/2000/svg"
   xmlns:sodipodi="http://sodipodi.sourceforge.net/DTD/sodipodi-0.dtd"
   xmlns:inkscape="http://www.inkscape.org/namespaces/inkscape"
   width="420"
   height="72"
   id="svg3876"
   version="1.1"
   inkscape:version="0.92.2 (unknown)"
   sodipodi:docname="spore-header.svg">
  <defs
     id="defs3878" />
  <sodipodi:namedview
     id="base"
     pagecolor="#ffffff"
     bordercolor="#666666"
     borderopacity="1.0"
     inkscape:pageopacity="0.0"
     inkscape:pageshadow="2"
     inkscape:zoom="1.979899"
     inkscape:cx="211.91365"
     inkscape:cy="52.614632"
     inkscape:document-units="px"
     inkscape:current-layer="g4411"
     showgrid="false"
     fit-margin-top="0"
     fit-margin-left="0"
     fit-margin-right="0"
     fit-margin-bottom="0"
     inkscape:window-width="1680"
     inkscape:window-height="997"
     inkscape:window-x="0"
     inkscape:window-y="0"
     inkscape:window-maximized="1"
     showguides="false"
     inkscape:guide-bbox="true"
     inkscape:snap-smooth-nodes="true"
     inkscape:snap-object-midpoints="true"
     inkscape:snap-center="true"
     inkscape:snap-bbox="true"
     inkscape:object-nodes="true"
     inkscape:object-paths="true"
     inkscape:snap-intersection-paths="true"
     inkscape:snap-bbox-midpoints="true"
     inkscape:snap-bbox-edge-midpoints="true"
     inkscape:bbox-nodes="true">
    <sodipodi:guide
       position="-13.392857,7"
       orientation="0,1"
       id="guide5098"
       inkscape:label=""
       inkscape:color="rgb(0,0,255)"
       inkscape:locked="false" />
    <sodipodi:guide
       position="7,57.857143"
       orientation="1,0"
       id="guide5100"
       inkscape:label=""
       inkscape:color="rgb(0,0,255)"
       inkscape:locked="false" />
    <sodipodi:guide
       position="10.892857,66"
       orientation="0,1"
       id="guide5102"
       inkscape:label=""
       inkscape:color="rgb(0,0,255)"
       inkscape:locked="false" />
    <sodipodi:guide
       position="413,66"
       orientation="1,0"
       id="guide5110"
       inkscape:label=""
       inkscape:color="rgb(0,0,255)"
       inkscape:locked="false" />
    <sodipodi:guide
       position="325.39539,23.424768"
       orientation="0,1"
       id="guide5112"
       inkscape:locked="false" />
  </sodipodi:namedview>
  <metadata
     id="metadata3881">
    <rdf:RDF>
      <cc:Work
         rdf:about="">
        <dc:format>image/svg+xml</dc:format>
        <dc:type
           rdf:resource="http://purl.org/dc/dcmitype/StillImage" />
        <dc:title />
      </cc:Work>
    </rdf:RDF>
  </metadata>
  <g
     inkscape:label="Layer 1"
     inkscape:groupmode="layer"
     id="layer1"
     transform="translate(-381.83313,-581.41388)">
    <g
       transform="translate(255.80027,-197.14286)"
       id="g4411">
      <path
         d="m 175.53225,821.16093 0,-7.79931 c 0,-6.12461 -2.4677,-9.18692 -7.80595,-9.18692 -3.12237,0 -5.38863,1.14835 -6.94982,3.39724 l 0,-1.81824 c 0,-0.62204 -0.45326,-1.00482 -1.41012,-1.00482 l -4.17995,0 c -2.06479,0 -3.07203,0.62203 -3.07203,2.58382 0,1.6747 0.90652,2.53596 2.66914,2.53596 0.10063,0 0.2518,0 0.40289,0 l 0,11.29227 c -0.10064,0 -0.20143,0 -0.30217,0 -1.86334,0 -2.76986,0.86128 -2.76986,2.58383 0,1.91395 0.95688,2.58383 3.07203,2.58383 l 6.09368,0 c 2.11517,0 3.07203,-0.66988 3.07203,-2.58383 0,-1.72255 -0.90651,-2.58383 -2.76987,-2.58383 -0.10064,0 -0.20144,0 -0.30216,0 l 0,-6.74664 c 0,-3.30155 2.06481,-5.16765 4.6332,-5.16765 2.82022,0 3.57564,1.7704 3.57564,5.16765 l 0,6.74664 c -0.10065,0 -0.20144,0 -0.30217,0 -1.86336,0 -2.82022,0.86128 -2.82022,2.58383 0,1.91395 1.00723,2.58383 3.12239,2.58383 l 6.04332,0 c 2.11515,0 3.07202,-0.66988 3.07202,-2.58383 0,-1.72255 -0.9065,-2.58383 -2.76985,-2.58383 -0.10064,0 -0.20146,0 -0.30217,0"
         style="font-style:normal;font-variant:normal;font-weight:bold;font-stretch:normal;font-size:74px;line-height:0%;font-family:'Courier 10 Pitch';-inkscape-font-specification:'Courier 10 Pitch Bold';text-align:start;letter-spacing:-2.5px;word-spacing:0px;writing-mode:lr-tb;text-anchor:start;fill:#208060;fill-opacity:1;stroke:#4d4d4d"
         id="path4388"
         inkscape:connector-curvature="0" />
      <path
         d="m 187.10415,816.90242 15.86369,0 c 2.56841,0 3.57564,-0.33494 3.57564,-2.39243 0,-5.45473 -4.83466,-10.28746 -12.28809,-10.28746 -8.15846,0 -13.39603,4.88057 -13.39603,11.34011 0,6.45957 5.28793,11.34013 13.39603,11.34013 7.20162,0 11.8852,-2.67952 11.8852,-5.35904 0,-1.38761 -0.9065,-2.29673 -2.2159,-2.29673 -1.81298,0 -4.17996,2.82306 -9.46785,2.82306 -4.07924,0 -6.49656,-1.67471 -7.35269,-5.16764 m 0,-3.6365 c 0.85613,-3.0623 3.02163,-4.5456 6.59728,-4.5456 3.67634,0 6.09368,1.62684 6.64764,4.5456 l -13.24492,0"
         style="font-style:normal;font-variant:normal;font-weight:bold;font-stretch:normal;font-size:74px;line-height:0%;font-family:'Courier 10 Pitch';-inkscape-font-specification:'Courier 10 Pitch Bold';text-align:start;letter-spacing:-2.5px;word-spacing:0px;writing-mode:lr-tb;text-anchor:start;fill:#208060;fill-opacity:1;stroke:#4d4d4d"
         id="path4390"
         inkscape:connector-curvature="0" />
      <path
         d="m 215.89948,826.0415 c 2.36695,0.62202 4.73393,0.86127 7.30235,0.86127 6.89945,0 10.57579,-2.77522 10.57579,-7.32083 0,-4.59346 -3.47491,-5.98106 -9.77002,-6.84236 -4.43177,-0.62203 -6.44621,-0.43064 -6.44621,-2.44026 0,-1.33977 1.35973,-2.24889 4.02887,-2.24889 4.43177,0 5.84187,3.34941 8.30958,3.34941 1.30938,0 2.11513,-0.76559 2.11513,-2.10534 l 0,-2.87092 c 0,-1.57901 -0.65468,-2.39244 -2.01442,-2.39244 -0.95686,0 -1.76264,0.38279 -2.41733,1.14838 -2.31661,-0.6699 -4.53249,-1.00482 -6.74837,-1.00482 -6.24475,0 -9.66932,2.53596 -9.66932,6.8902 0,3.73216 2.76987,5.83752 8.46065,6.60309 5.33827,0.71775 7.65489,0.71775 7.65489,2.91876 0,1.24406 -1.30941,2.3446 -3.87781,2.3446 -2.71948,0 -4.7843,-0.66989 -6.44621,-2.05751 -1.20867,-1.05266 -1.15829,-2.39243 -3.27346,-2.39243 -1.76263,0 -2.41733,0.76559 -2.41733,2.82309 l 0,3.158 c 0,1.62686 0.35254,2.53597 1.96408,2.53597 0.90649,0 1.76264,-0.33495 2.66914,-0.95697"
         style="font-style:normal;font-variant:normal;font-weight:bold;font-stretch:normal;font-size:74px;line-height:0%;font-family:'Courier 10 Pitch';-inkscape-font-specification:'Courier 10 Pitch Bold';text-align:start;letter-spacing:-2.5px;word-spacing:0px;writing-mode:lr-tb;text-anchor:start;fill:#208060;fill-opacity:1;stroke:#4d4d4d"
         id="path4392"
         inkscape:connector-curvature="0" />
      <path
         d="m 240.91773,811.1606 2.31661,0 0,5.98106 c 0,0.19141 0,0.3828 0,0.52633 0,2.82306 0.0505,4.97626 1.51082,6.60311 1.41011,1.57901 3.97853,2.53597 7.45344,2.53597 6.09367,0 11.23049,-2.58382 11.23049,-4.68916 0,-1.62685 -1.1583,-2.67953 -2.46767,-2.67953 -2.11518,0 -4.53251,2.10535 -8.0074,2.10535 -2.92094,0 -3.67636,-1.33976 -3.67636,-4.40207 l 0,-5.98106 7.50379,0 c 2.06479,0 3.12236,-0.62204 3.12236,-2.58383 0,-1.96179 -1.05757,-2.53598 -3.12236,-2.53598 l -7.50379,0 0,-5.45475 c 0,-2.00964 -0.75542,-2.91876 -3.07202,-2.91876 -1.91371,0 -2.9713,1.00482 -2.9713,1.96181 0,0.0956 0,0.38277 0,0.95695 l 0,5.45475 -2.31661,0 c -2.06479,0 -3.07201,0.57419 -3.07201,2.53598 0,1.96179 1.00722,2.58383 3.07201,2.58383"
         style="font-style:normal;font-variant:normal;font-weight:bold;font-stretch:normal;font-size:74px;line-height:0%;font-family:'Courier 10 Pitch';-inkscape-font-specification:'Courier 10 Pitch Bold';text-align:start;letter-spacing:-2.5px;word-spacing:0px;writing-mode:lr-tb;text-anchor:start;fill:#208060;fill-opacity:1;stroke:#4d4d4d"
         id="path4394"
         inkscape:connector-curvature="0" />
      <path
         id="path4239"
         d="m 282.91516,807.92996 c 0,2.32121 -1.9805,4.2029 -4.42359,4.2029 -2.44308,0 -4.4236,-1.88169 -4.4236,-4.2029 0,-2.32121 1.98052,-4.20292 4.4236,-4.20292 2.44309,0 4.42359,1.88171 4.42359,4.20292 z"
         style="fill:#208060;fill-opacity:1;stroke:#4d4d4d"
         inkscape:connector-curvature="0" />
      <path
         id="path4241"
         d="m 297.88736,807.92996 c 0,2.32121 -1.98052,4.2029 -4.4236,4.2029 -2.44308,0 -4.4236,-1.88169 -4.4236,-4.2029 0,-2.32121 1.98052,-4.20292 4.4236,-4.20292 2.44308,0 4.4236,1.88171 4.4236,4.20292 z"
         style="fill:#208060;fill-opacity:1;stroke:#4d4d4d"
         inkscape:connector-curvature="0" />
      <path
         id="path4243"
         d="m 297.88736,822.15522 c 0,2.32119 -1.98052,4.20292 -4.4236,4.20292 -2.44308,0 -4.4236,-1.88173 -4.4236,-4.20292 0,-2.32121 1.98052,-4.20293 4.4236,-4.20293 2.44308,0 4.4236,1.88172 4.4236,4.20293 z"
         style="fill:#208060;fill-opacity:1;stroke:#4d4d4d"
         inkscape:connector-curvature="0" />
      <path
         id="path4245"
         d="m 282.91516,822.15522 c 0,2.32119 -1.9805,4.20292 -4.42359,4.20292 -2.44308,0 -4.4236,-1.88173 -4.4236,-4.20292 0,-2.32121 1.98052,-4.20293 4.4236,-4.20293 2.44309,0 4.42359,1.88172 4.42359,4.20293 z"
         style="fill:#208060;fill-opacity:1;stroke:#4d4d4d"
         inkscape:connector-curvature="0" />
      <g
         style="font-style:normal;font-variant:normal;font-weight:bold;font-stretch:normal;font-size:67.90142822px;line-height:0%;font-family:'Courier New';-inkscape-font-specification:'Courier New, Bold';text-align:start;letter-spacing:0px;word-spacing:0px;writing-mode:lr-tb;text-anchor:start;fill:#208060;fill-opacity:1;stroke:#4d4d4d;stroke-width:1px;stroke-linecap:butt;stroke-linejoin:miter;stroke-opacity:1"
         id="text4241-8"
         transform="matrix(0.6515989,0,0,0.6190921,42.733809,318.52363)">
        <path
           d="m 413.39924,818.82037 q -0.89519,1.06096 -1.45882,1.35936 -0.53048,0.29839 -1.3262,0.29839 -1.55829,0 -2.51978,-1.0278 -0.92834,-1.06096 -0.92834,-3.48128 l 0,-4.57538 q 0,-2.45347 0.92834,-3.48128 0.96149,-1.06096 2.51978,-1.06096 1.19358,0 1.9893,0.62995 0.82887,0.62994 1.25989,2.12192 0.43101,1.45882 0.89518,1.9893 0.9615,1.0278 3.41497,2.08876 2.45347,1.06096 5.37111,1.06096 4.54223,0 7.45987,-2.12192 1.85668,-1.29304 1.85668,-3.18288 0,-1.25989 -0.89519,-2.354 -0.89518,-1.12727 -2.91764,-1.85668 -1.3262,-0.49733 -5.93474,-1.35936 -5.57004,-1.0278 -8.42137,-2.48662 -2.85133,-1.45882 -4.50908,-4.11122 -1.65775,-2.6524 -1.65775,-5.73582 0,-4.87378 4.07807,-8.52083 4.07806,-3.6802 10.6096,-3.6802 2.61924,0 4.84062,0.59679 2.25454,0.56363 4.07807,1.75721 1.3262,-1.29304 2.6524,-1.29304 1.49197,0 2.42031,1.06096 0.9615,1.0278 0.9615,3.44811 l 0,5.10587 q 0,2.45347 -0.9615,3.51443 -0.92834,1.02781 -2.42031,1.02781 -1.25989,0 -2.18823,-0.76257 -0.72941,-0.56363 -1.09412,-2.25454 -0.3647,-1.6909 -0.92834,-2.42031 -0.96149,-1.25989 -2.88448,-2.12192 -1.92299,-0.86203 -4.44277,-0.86203 -3.6802,0 -5.83528,1.72406 -2.12192,1.6909 -2.12192,3.54758 0,1.25989 0.86203,2.45347 0.89519,1.16043 2.58609,1.82353 1.12727,0.46417 6.3326,1.49197 5.23849,1.02781 8.02351,2.25454 2.81818,1.22674 4.67486,3.84598 1.85668,2.61925 1.85668,6.23314 0,5.03956 -3.54759,8.05666 -4.70801,3.9786 -12.0021,3.9786 -2.81818,0 -5.50373,-0.69625 -2.6524,-0.6631 -5.17218,-2.02246 z"
           style="line-height:0%;letter-spacing:0px;fill:#208060;fill-opacity:1;stroke:#4d4d4d"
           id="path4190"
           inkscape:connector-curvature="0" />
      </g>
      <g
         style="font-style:normal;font-variant:normal;font-weight:bold;font-stretch:normal;font-size:67.90142822px;line-height:0%;font-family:'Courier New';-inkscape-font-specification:'Courier New, Bold';text-align:start;letter-spacing:0px;word-spacing:0px;writing-mode:lr-tb;text-anchor:start;fill:#208060;fill-opacity:1;stroke:#4d4d4d;stroke-width:1px;stroke-linecap:butt;stroke-linejoin:miter;stroke-opacity:1"
         id="text4241-8-5"
         transform="matrix(0.6515989,0,0,0.6190921,42.733809,318.52363)">
        <path
           d="m 465.67263,807.74658 0,6.99571 6.86308,0 q 2.45347,0 3.48128,0.96149 1.06096,0.92834 1.06096,2.45347 0,1.49198 -1.06096,2.45347 -1.02781,0.92834 -3.48128,0.92834 l -14.72081,0 q -2.45347,0 -3.51443,-0.92834 -1.02781,-0.96149 -1.02781,-2.48662 0,-1.49198 1.06096,-2.42032 1.06096,-0.96149 3.48128,-0.96149 l 1.06096,0 0,-26.59031 -1.06096,0 q -2.45347,0 -3.51443,-0.92834 -1.02781,-0.96149 -1.02781,-2.48662 0,-1.52513 1.02781,-2.45347 1.06096,-0.9615 3.51443,-0.9615 l 15.64915,0.0332 q 6.89624,0 10.908,3.77967 4.04491,3.74651 4.04491,9.15078 0,2.98395 -1.35936,5.63635 -1.0278,1.9893 -3.44812,3.94544 -2.38716,1.92299 -4.90694,2.91764 -2.48662,0.96149 -6.59784,0.96149 l -6.43207,0 z m 0,-6.79677 6.29945,0 q 4.44277,0 7.02886,-1.9893 2.61924,-2.02245 2.61924,-4.84063 0,-2.38716 -2.12192,-4.17753 -2.08876,-1.79037 -6.00105,-1.79037 l -7.82458,0 0,12.79783 z"
           style="line-height:0%;letter-spacing:0px;fill:#208060;fill-opacity:1;stroke:#4d4d4d"
           id="path4187"
           inkscape:connector-curvature="0" />
      </g>
      <g
         style="font-style:normal;font-variant:normal;font-weight:bold;font-stretch:normal;font-size:67.90142822px;line-height:0%;font-family:'Courier New';-inkscape-font-specification:'Courier New, Bold';text-align:start;letter-spacing:0px;word-spacing:0px;writing-mode:lr-tb;text-anchor:start;fill:#208060;fill-opacity:1;stroke:#4d4d4d;stroke-width:1px;stroke-linecap:butt;stroke-linejoin:miter;stroke-opacity:1"
         id="text4241-8-8"
         transform="matrix(0.6515989,0,0,0.6190921,42.733809,318.52363)">
        <path
           d="m 537.34174,800.45251 q 0,9.05131 -5.76897,15.08552 -5.73581,6.00105 -13.29515,6.00105 -6.79677,0 -12.26735,-5.0064 -6.76362,-6.19998 -6.76362,-16.08017 0,-9.88019 6.76362,-16.11333 5.47058,-5.0064 12.26735,-5.0064 7.55934,0 13.29515,6.0342 5.76897,6.00106 5.76897,15.08553 z m -6.79677,0 q 0,-6.19999 -3.74652,-10.2449 -3.74651,-4.07806 -8.52083,-4.07806 -4.74116,0 -8.48768,4.07806 -3.74651,4.07807 -3.74651,10.2449 0,6.16683 3.74651,10.24489 3.74652,4.04491 8.48768,4.04491 4.77432,0 8.52083,-4.04491 3.74652,-4.04491 3.74652,-10.24489 z"
           style="line-height:0%;letter-spacing:0px;fill:#208060;fill-opacity:1;stroke:#4d4d4d"
           id="path4184"
           inkscape:connector-curvature="0" />
      </g>
      <g
         style="font-style:normal;font-variant:normal;font-weight:bold;font-stretch:normal;font-size:67.90142822px;line-height:0%;font-family:'Courier New';-inkscape-font-specification:'Courier New, Bold';text-align:start;letter-spacing:0px;word-spacing:0px;writing-mode:lr-tb;text-anchor:start;fill:#208060;fill-opacity:1;stroke:#4d4d4d;stroke-width:1px;stroke-linecap:butt;stroke-linejoin:miter;stroke-opacity:1"
         id="text4241-8-2"
         transform="matrix(0.6515989,0,0,0.6190921,42.733809,318.52363)">
        <path
           d="m 557.53767,806.1883 0,8.55399 2.45347,0 q 2.45347,0 3.48128,0.96149 1.06095,0.92834 1.06095,2.45347 0,1.49198 -1.06095,2.45347 -1.02781,0.92834 -3.48128,0.92834 l -10.3112,0 q -2.45347,0 -3.51443,-0.92834 -1.02781,-0.96149 -1.02781,-2.48662 0,-1.49198 1.06096,-2.42032 1.06096,-0.96149 3.48128,-0.96149 l 1.06096,0 0,-26.59031 -1.06096,0 q -2.45347,0 -3.51443,-0.92834 -1.02781,-0.96149 -1.02781,-2.48662 0,-1.52513 1.02781,-2.45347 1.06096,-0.9615 3.51443,-0.9615 l 15.38391,0.0332 q 7.19464,0 11.14008,3.58074 3.9786,3.54758 3.9786,8.65345 0,3.18288 -1.85668,5.80213 -1.85668,2.58609 -5.60319,4.60854 2.15507,1.88984 4.60854,4.84063 1.52513,1.88983 4.11122,5.90159 2.58609,0 3.41497,0.53048 1.49197,1.0278 1.49197,2.88448 0,1.49198 -1.0278,2.45347 -1.02781,0.92834 -3.48128,0.92834 l -3.87913,0 q -8.2556,-12.76467 -13.69301,-15.35076 l -6.73047,0 z m 0,-6.79677 5.3048,0 q 2.95079,0 5.27164,-0.89519 3.11657,-1.19358 4.17753,-2.51978 1.09412,-1.3262 1.09412,-2.61924 0,-1.92299 -2.05561,-3.54759 -2.05561,-1.65775 -6.00106,-1.65775 l -7.79142,0 0,11.23955 z"
           style="line-height:0%;letter-spacing:0px;fill:#208060;fill-opacity:1;stroke:#4d4d4d"
           id="path4181"
           inkscape:connector-curvature="0" />
      </g>
      <g
         style="font-style:normal;font-variant:normal;font-weight:bold;font-stretch:normal;font-size:67.90142822px;line-height:0%;font-family:'Courier New';-inkscape-font-specification:'Courier New, Bold';text-align:start;letter-spacing:0px;word-spacing:0px;writing-mode:lr-tb;text-anchor:start;fill:#208060;fill-opacity:1;stroke:#4d4d4d;stroke-width:1px;stroke-linecap:butt;stroke-linejoin:miter;stroke-opacity:1"
         id="text4241-8-7"
         transform="matrix(0.6515989,0,0,0.6190921,42.733809,318.52363)">
        <path
           d="m 607.32455,804.76264 0,9.97965 17.34006,0 0,-3.68021 q 0,-2.45347 0.92834,-3.48127 0.9615,-1.06096 2.48663,-1.06096 1.49197,0 2.42031,1.06096 0.9615,1.0278 0.9615,3.48127 l 0,10.47698 -31.99457,0 q -2.45347,0 -3.51443,-0.92834 -1.02781,-0.96149 -1.02781,-2.48662 0,-1.49198 1.06096,-2.42032 1.06096,-0.96149 3.48128,-0.96149 l 1.06096,0 0,-26.59031 -1.06096,0 q -2.45347,0 -3.51443,-0.92834 -1.02781,-0.96149 -1.02781,-2.48662 0,-1.52513 1.02781,-2.45347 1.06096,-0.9615 3.51443,-0.9615 l 30.50259,0.0332 0,10.34436 q 0,2.42031 -0.92834,3.48127 -0.92834,1.02781 -2.45347,1.02781 -1.52513,0 -2.48662,-1.02781 -0.92834,-1.0278 -0.92834,-3.48127 l 0,-3.54759 -15.84809,0 0,9.81388 5.9679,0 q 0,-2.6524 0.49732,-3.41496 1.02781,-1.6246 2.91764,-1.6246 1.49198,0 2.42032,1.06096 0.96149,1.02781 0.96149,3.48128 l 0,7.82458 q 0,2.22138 -0.53048,2.98394 -1.06096,1.55829 -2.85133,1.55829 -1.88983,0 -2.91764,-1.6246 -0.49732,-0.76256 -0.49732,-3.44811 l -5.9679,0 z"
           style="line-height:0%;letter-spacing:0px;fill:#208060;fill-opacity:1;stroke:#4d4d4d"
           id="path4178"
           inkscape:connector-curvature="0" />
      </g>
      <text
         xml:space="preserve"
         style="color:#000000;font-style:normal;font-variant:normal;font-weight:normal;font-stretch:normal;line-height:0%;font-family:Arial;-inkscape-font-specification:Arial;text-indent:0;text-align:center;text-decoration:none;text-decoration-line:none;text-decoration-style:solid;text-decoration-color:#000000;letter-spacing:0px;word-spacing:0px;text-transform:none;writing-mode:lr-tb;direction:ltr;baseline-shift:baseline;text-anchor:middle;white-space:normal;clip-rule:nonzero;display:inline;overflow:visible;visibility:visible;opacity:1;isolation:auto;mix-blend-mode:normal;color-interpolation:sRGB;color-interpolation-filters:linearRGB;solid-color:#000000;solid-opacity:1;fill:#208060;fill-opacity:1;fill-rule:nonzero;stroke:none;stroke-width:1;stroke-linecap:butt;stroke-linejoin:miter;stroke-miterlimit:4;stroke-dasharray:none;stroke-dashoffset:0;stroke-opacity:1;marker:none;color-rendering:auto;image-rendering:auto;shape-rendering:auto;text-rendering:auto;enable-background:accumulate;"
         x="498.47894"
         y="827.0025"
         id="text5106"><tspan
           sodipodi:role="line"
           id="tspan5108"
           x="498.47894"
           y="827.0025"
           style="font-size:11.25px;line-height:1.25;fill:#208060;fill-opacity:1;">version 2.14</tspan></text>
    </g>
  </g>
</svg>
