<?xml version="1.0" encoding="UTF-8" standalone="no"?>
<!-- Created with Inkscape (http://www.inkscape.org/) -->

<svg
   xmlns:dc="http://purl.org/dc/elements/1.1/"
   xmlns:cc="http://creativecommons.org/ns#"
   xmlns:rdf="http://www.w3.org/1999/02/22-rdf-syntax-ns#"
   xmlns:svg="http://www.w3.org/2000/svg"
   xmlns="http://www.w3.org/2000/svg"
   xmlns:sodipodi="http://sodipodi.sourceforge.net/DTD/sodipodi-0.dtd"
   xmlns:inkscape="http://www.inkscape.org/namespaces/inkscape"
   width="586.77332"
   height="105.86266"
   id="svg3876"
   version="1.1"
   inkscape:version="0.92.1 r"
   sodipodi:docname="nest-spore-header.svg">
  <defs
     id="defs3878" />
  <sodipodi:namedview
     id="base"
     pagecolor="#ffffff"
     bordercolor="#666666"
     borderopacity="1.0"
     inkscape:pageopacity="0.0"
     inkscape:pageshadow="2"
     inkscape:zoom="1.4"
     inkscape:cx="207.77225"
     inkscape:cy="21.516622"
     inkscape:document-units="px"
     inkscape:current-layer="g4411"
     showgrid="false"
     fit-margin-top="0"
     fit-margin-left="0"
     fit-margin-right="0"
     fit-margin-bottom="0"
     inkscape:window-width="1920"
     inkscape:window-height="1147"
     inkscape:window-x="0"
     inkscape:window-y="29"
     inkscape:window-maximized="1"
     showguides="false"
     inkscape:guide-bbox="true" />
  <metadata
     id="metadata3881">
    <rdf:RDF>
      <cc:Work
         rdf:about="">
        <dc:format>image/svg+xml</dc:format>
        <dc:type
           rdf:resource="http://purl.org/dc/dcmitype/StillImage" />
        <dc:title />
      </cc:Work>
    </rdf:RDF>
  </metadata>
  <g
     inkscape:label="Layer 1"
     inkscape:groupmode="layer"
     id="layer1"
     transform="translate(-407.28867,-591.11214)">
    <g
       transform="translate(272.85362,-210.28572)"
       id="g4411">
      <path
         id="path4233"
         style="fill:#ff6633;fill-opacity:1;fill-rule:nonzero;stroke:none;stroke-width:1.06666672"
         d="m 721.20806,890.52052 c 0,8.63334 -6.89333,16.74 -15.40133,16.74 H 134.43612 l -10e-4,-90.232 c 0,-8.632 6.89467,-15.63066 15.40267,-15.63066 H 705.807 c 8.508,0 15.40133,6.99866 15.40133,15.63066 v 73.492 z"
         inkscape:connector-curvature="0"
         sodipodi:nodetypes="csccssscc" />
      <path
         d="m 206.88673,867.07613 v -13.99418 c 0,-10.98929 -4.20685,-16.48394 -13.30735,-16.48394 -5.32293,0 -9.18637,2.06049 -11.84784,6.09562 v -3.26245 c 0,-1.1161 -0.77268,-1.80293 -2.40391,-1.80293 h -7.12587 c -3.52,0 -5.23709,1.1161 -5.23709,4.63611 0,3.00489 1.54539,4.55025 4.55025,4.55025 0.17171,0 0.42927,0 0.68684,0 v 20.26152 c -0.17171,0 -0.34341,0 -0.51513,0 -3.17657,0 -4.72196,1.54537 -4.72196,4.6361 0,3.43417 1.63123,4.63612 5.23709,4.63612 h 10.38832 c 3.60587,0 5.23709,-1.20195 5.23709,-4.63612 0,-3.09073 -1.54538,-4.6361 -4.72196,-4.6361 -0.17172,0 -0.34342,0 -0.51513,0 v -12.1054 c 0,-5.92391 3.52002,-9.27221 7.89856,-9.27221 4.80782,0 6.09563,3.17658 6.09563,9.27221 v 12.1054 c -0.17172,0 -0.34343,0 -0.51513,0 -3.17659,0 -4.80782,1.54537 -4.80782,4.6361 0,3.43417 1.71709,4.63612 5.32295,4.63612 h 10.30246 c 3.60586,0 5.23709,-1.20195 5.23709,-4.63612 0,-3.09073 -1.54538,-4.6361 -4.72196,-4.6361 -0.17172,0 -0.34343,0 -0.51513,0"
         style="font-style:normal;font-variant:normal;font-weight:bold;font-stretch:normal;font-size:74px;line-height:0%;font-family:'Courier 10 Pitch';-inkscape-font-specification:'Courier 10 Pitch Bold';text-align:start;letter-spacing:-2.5px;word-spacing:0px;writing-mode:lr-tb;text-anchor:start;fill:#ffffff;fill-opacity:1;stroke:none;stroke-width:1.06666672"
         id="path4388"
         inkscape:connector-curvature="0" />
      <path
         d="m 226.61413,859.43514 h 27.04397 c 4.37854,0 6.09563,-0.601 6.09563,-4.2927 0,-9.78734 -8.24199,-18.45859 -20.94835,-18.45859 -13.90831,0 -22.83713,8.75711 -22.83713,20.34737 0,11.59027 9.01466,20.34737 22.83713,20.34737 12.27709,0 20.26152,-4.80783 20.26152,-9.61562 0,-2.48978 -1.54537,-4.121 -3.77758,-4.121 -3.09073,0 -7.12587,5.06538 -16.14052,5.06538 -6.95417,0 -11.07516,-3.0049 -12.53467,-9.27221 m 0,-6.5249 c 1.45951,-5.49465 5.15124,-8.15612 11.24686,-8.15612 6.26732,0 10.38832,2.91903 11.33271,8.15612 h -22.57957"
         style="font-style:normal;font-variant:normal;font-weight:bold;font-stretch:normal;font-size:74px;line-height:0%;font-family:'Courier 10 Pitch';-inkscape-font-specification:'Courier 10 Pitch Bold';text-align:start;letter-spacing:-2.5px;word-spacing:0px;writing-mode:lr-tb;text-anchor:start;fill:#ffffff;fill-opacity:1;stroke:none;stroke-width:1.06666672"
         id="path4390"
         inkscape:connector-curvature="0" />
      <path
         d="m 275.70355,875.83323 c 4.03513,1.11609 8.07027,1.54536 12.44881,1.54536 11.76198,0 18.02931,-4.97953 18.02931,-13.13564 0,-8.24196 -5.92392,-10.73173 -16.65564,-12.2771 -7.55514,-1.1161 -10.9893,-0.77269 -10.9893,-4.37855 0,-2.40391 2.31806,-4.03513 6.8683,-4.03513 7.55515,0 9.95907,6.00977 14.16589,6.00977 2.23221,0 3.60587,-1.37366 3.60587,-3.77758 v -5.15123 c 0,-2.83317 -1.1161,-4.29269 -3.43416,-4.29269 -1.63122,0 -3.00488,0.68683 -4.12098,2.06049 -3.94927,-1.20195 -7.72686,-1.80292 -11.50442,-1.80292 -10.64587,0 -16.48395,4.55025 -16.48395,12.36295 0,6.69659 4.72197,10.47418 14.42346,11.84784 9.10051,1.28781 13.04979,1.28781 13.04979,5.23709 0,2.23219 -2.2322,4.20684 -6.61075,4.20684 -4.6361,0 -8.15612,-1.20196 -10.98931,-3.69173 -2.06049,-1.88878 -1.97463,-4.29269 -5.5805,-4.29269 -3.00487,0 -4.12098,1.37366 -4.12098,5.06539 v 5.66635 c 0,2.91903 0.60099,4.55025 3.3483,4.55025 1.54538,0 3.00489,-0.60098 4.55026,-1.71707"
         style="font-style:normal;font-variant:normal;font-weight:bold;font-stretch:normal;font-size:74px;line-height:0%;font-family:'Courier 10 Pitch';-inkscape-font-specification:'Courier 10 Pitch Bold';text-align:start;letter-spacing:-2.5px;word-spacing:0px;writing-mode:lr-tb;text-anchor:start;fill:#ffffff;fill-opacity:1;stroke:none;stroke-width:1.06666672"
         id="path4392"
         inkscape:connector-curvature="0" />
      <path
         d="m 318.35393,849.13267 h 3.94928 v 10.73174 c 0,0.34341 0,0.68682 0,0.94439 0,5.06537 0.0859,8.9288 2.57562,11.84783 2.40391,2.83318 6.78246,4.55026 12.70638,4.55026 10.3883,0 19.14541,-4.63613 19.14541,-8.41368 0,-2.91903 -1.97464,-4.80782 -4.20683,-4.80782 -3.60587,0 -7.72687,3.77758 -13.65078,3.77758 -4.97952,0 -6.26732,-2.40393 -6.26732,-7.89856 v -10.73174 h 12.79222 c 3.52001,0 5.32294,-1.1161 5.32294,-4.63612 0,-3.52001 -1.80293,-4.55025 -5.32294,-4.55025 h -12.79222 v -9.78735 c 0,-3.60585 -1.28783,-5.23707 -5.23709,-5.23707 -3.26246,0 -5.06539,1.80292 -5.06539,3.52 0,0.17171 0,0.68683 0,1.71707 v 9.78735 h -3.94928 c -3.52,0 -5.23708,1.03024 -5.23708,4.55025 0,3.52002 1.71708,4.63612 5.23708,4.63612"
         style="font-style:normal;font-variant:normal;font-weight:bold;font-stretch:normal;font-size:74px;line-height:0%;font-family:'Courier 10 Pitch';-inkscape-font-specification:'Courier 10 Pitch Bold';text-align:start;letter-spacing:-2.5px;word-spacing:0px;writing-mode:lr-tb;text-anchor:start;fill:#ffffff;fill-opacity:1;stroke:none;stroke-width:1.06666672"
         id="path4394"
         inkscape:connector-curvature="0" />
      <path
         id="path4239"
         d="m 389.94989,843.33602 c 0,4.16489 -3.37632,7.54121 -7.54122,7.54121 -4.16489,0 -7.54121,-3.37632 -7.54121,-7.54121 0,-4.16491 3.37632,-7.54123 7.54121,-7.54123 4.1649,0 7.54122,3.37632 7.54122,7.54123 z"
         style="fill:#ffffff;fill-opacity:1;stroke:none;stroke-width:1.06666672"
         inkscape:connector-curvature="0" />
      <path
         id="path4241"
         d="m 415.47402,843.33602 c 0,4.16489 -3.37632,7.54121 -7.54122,7.54121 -4.1649,0 -7.54122,-3.37632 -7.54122,-7.54121 0,-4.16491 3.37632,-7.54123 7.54122,-7.54123 4.1649,0 7.54122,3.37632 7.54122,7.54123 z"
         style="fill:#ffffff;fill-opacity:1;stroke:none;stroke-width:1.06666672"
         inkscape:connector-curvature="0" />
      <path
         id="path4243"
         d="m 415.47402,868.86015 c 0,4.16488 -3.37632,7.5412 -7.54122,7.5412 -4.1649,0 -7.54122,-3.37632 -7.54122,-7.5412 0,-4.16491 3.37632,-7.54123 7.54122,-7.54123 4.1649,0 7.54122,3.37632 7.54122,7.54123 z"
         style="fill:#ffffff;fill-opacity:1;stroke:none;stroke-width:1.06666672"
         inkscape:connector-curvature="0" />
      <path
         id="path4245"
         d="m 389.94989,868.86015 c 0,4.16488 -3.37632,7.5412 -7.54122,7.5412 -4.16489,0 -7.54121,-3.37632 -7.54121,-7.5412 0,-4.16491 3.37632,-7.54123 7.54121,-7.54123 4.1649,0 7.54122,3.37632 7.54122,7.54123 z"
         style="fill:#ffffff;fill-opacity:1;stroke:none;stroke-width:1.06666672"
         inkscape:connector-curvature="0" />
      <path
         inkscape:connector-curvature="0"
         id="path4190"
         style="font-style:normal;font-variant:normal;font-weight:bold;font-stretch:normal;font-size:medium;line-height:0%;font-family:'Courier New';-inkscape-font-specification:'Courier New, Bold';text-align:start;letter-spacing:0px;word-spacing:0px;writing-mode:lr-tb;text-anchor:start;fill:#ffffff;fill-opacity:1;stroke:none;stroke-width:1.11082613px;stroke-linecap:butt;stroke-linejoin:miter;stroke-opacity:1"
         d="m 439.71063,874.76988 q -0.9944,1.17856 -1.6205,1.51002 -0.58927,0.33146 -1.47318,0.33146 -1.73098,0 -2.79903,-1.14171 -1.03122,-1.17854 -1.03122,-3.86709 v -5.08246 q 0,-2.72537 1.03122,-3.86709 1.06805,-1.17855 2.79903,-1.17855 1.32586,0 2.20977,0.69977 0.92073,0.69976 1.39952,2.35708 0.47878,1.6205 0.99439,2.20977 1.06806,1.14171 3.79344,2.32025 2.72538,1.17854 5.96637,1.17854 5.04563,0 8.28662,-2.35708 2.06244,-1.43634 2.06244,-3.53563 0,-1.39951 -0.99439,-2.61488 -0.99439,-1.2522 -3.24099,-2.06245 -1.47319,-0.55245 -6.59247,-1.51002 -6.18735,-1.14171 -9.35468,-2.7622 -3.16733,-1.62049 -5.0088,-4.56685 -1.84147,-2.94635 -1.84147,-6.3715 0,-5.41392 4.53002,-9.46515 4.53002,-4.08807 11.78543,-4.08807 2.90951,0 5.37709,0.66293 2.50439,0.6261 4.53002,1.95195 1.47317,-1.43634 2.94635,-1.43634 1.65732,0 2.68855,1.17855 1.06806,1.1417 1.06806,3.83024 v 5.67175 q 0,2.72537 -1.06806,3.90391 -1.03123,1.14172 -2.68855,1.14172 -1.39952,0 -2.43074,-0.84709 -0.81025,-0.62609 -1.21538,-2.5044 -0.40511,-1.8783 -1.03122,-2.68854 -1.06805,-1.39952 -3.20416,-2.35708 -2.13611,-0.95757 -4.93514,-0.95757 -4.08807,0 -6.48198,1.91513 -2.35709,1.8783 -2.35709,3.94075 0,1.39951 0.95757,2.72537 0.9944,1.28905 2.87269,2.02563 1.2522,0.51562 7.03443,1.65732 5.81904,1.14172 8.91272,2.5044 3.13051,1.36269 5.19295,4.27222 2.06245,2.90953 2.06245,6.92393 0,5.59807 -3.94075,8.94955 -5.22978,4.41953 -13.33225,4.41953 -3.13051,0 -6.11369,-0.77341 -2.94636,-0.73659 -5.74539,-2.24661 z" />
      <path
         inkscape:connector-curvature="0"
         id="path4187"
         style="font-style:normal;font-variant:normal;font-weight:bold;font-stretch:normal;font-size:medium;line-height:0%;font-family:'Courier New';-inkscape-font-specification:'Courier New, Bold';text-align:start;letter-spacing:0px;word-spacing:0px;writing-mode:lr-tb;text-anchor:start;fill:#ffffff;fill-opacity:1;stroke:none;stroke-width:1.11082613px;stroke-linecap:butt;stroke-linejoin:miter;stroke-opacity:1"
         d="m 497.77727,862.46883 v 7.77102 h 7.62369 q 2.72539,0 3.86711,1.06805 1.17854,1.03122 1.17854,2.72538 0,1.65733 -1.17854,2.72537 -1.14172,1.03123 -3.86711,1.03123 H 489.0487 q -2.72537,0 -3.90391,-1.03123 -1.14172,-1.06804 -1.14172,-2.76219 0,-1.65734 1.17854,-2.68856 1.17854,-1.06805 3.86709,-1.06805 h 1.17854 v -29.53721 h -1.17854 q -2.72537,0 -3.90391,-1.03122 -1.14172,-1.06805 -1.14172,-2.76221 0,-1.69415 1.14172,-2.72537 1.17854,-1.06806 3.90391,-1.06806 l 17.38349,0.0369 q 7.66052,0 12.11689,4.19856 4.49319,4.16173 4.49319,10.16493 0,3.31465 -1.51001,6.261 -1.1417,2.20977 -3.83026,4.3827 -2.65172,2.13611 -5.45076,3.24099 -2.7622,1.06804 -7.32905,1.06804 h -7.14492 z m 0,-7.55003 h 6.99761 q 4.93514,0 7.80784,-2.20977 2.90951,-2.24659 2.90951,-5.37709 0,-2.65172 -2.35708,-4.64051 -2.32025,-1.98879 -6.66613,-1.98879 h -8.69175 z" />
      <path
         inkscape:connector-curvature="0"
         id="path4184"
         style="font-style:normal;font-variant:normal;font-weight:bold;font-stretch:normal;font-size:medium;line-height:0%;font-family:'Courier New';-inkscape-font-specification:'Courier New, Bold';text-align:start;letter-spacing:0px;word-spacing:0px;writing-mode:lr-tb;text-anchor:start;fill:#ffffff;fill-opacity:1;stroke:none;stroke-width:1.11082613px;stroke-linecap:butt;stroke-linejoin:miter;stroke-opacity:1"
         d="m 577.38919,854.36639 q 0,10.05443 -6.40832,16.75739 -6.37148,6.66612 -14.7686,6.66612 -7.55003,0 -13.62689,-5.56124 -7.5132,-6.8871 -7.5132,-17.86227 0,-10.97518 7.5132,-17.89911 6.07686,-5.56124 13.62689,-5.56124 8.39712,0 14.7686,6.70295 6.40832,6.66613 6.40832,16.7574 z m -7.55003,0 q 0,-6.88711 -4.16172,-11.3803 -4.16173,-4.53002 -9.46517,-4.53002 -5.2666,0 -9.42833,4.53002 -4.16172,4.53003 -4.16172,11.3803 0,6.85027 4.16172,11.38029 4.16173,4.49319 9.42833,4.49319 5.30344,0 9.46517,-4.49319 4.16172,-4.49319 4.16172,-11.38029 z" />
      <path
         inkscape:connector-curvature="0"
         id="path4181"
         style="font-style:normal;font-variant:normal;font-weight:bold;font-stretch:normal;font-size:medium;line-height:0%;font-family:'Courier New';-inkscape-font-specification:'Courier New, Bold';text-align:start;letter-spacing:0px;word-spacing:0px;writing-mode:lr-tb;text-anchor:start;fill:#ffffff;fill-opacity:1;stroke:none;stroke-width:1.11082613px;stroke-linecap:butt;stroke-linejoin:miter;stroke-opacity:1"
         d="m 599.82337,860.73786 v 9.50199 h 2.72537 q 2.72538,0 3.8671,1.06805 1.17853,1.03122 1.17853,2.72538 0,1.65733 -1.17853,2.72537 -1.14172,1.03123 -3.8671,1.03123 h -11.45395 q -2.72538,0 -3.90392,-1.03123 -1.14172,-1.06804 -1.14172,-2.76219 0,-1.65734 1.17854,-2.68856 1.17854,-1.06805 3.8671,-1.06805 h 1.17854 v -29.53721 h -1.17854 q -2.72538,0 -3.90392,-1.03122 -1.14172,-1.06805 -1.14172,-2.76221 0,-1.69415 1.14172,-2.72537 1.17854,-1.06806 3.90392,-1.06806 l 17.08885,0.0369 q 7.992,0 12.3747,3.97759 4.41953,3.94074 4.41953,9.61247 0,3.53562 -2.06245,6.44516 -2.06245,2.8727 -6.22417,5.11929 2.3939,2.09928 5.11929,5.3771 1.69415,2.09926 4.56685,6.55564 2.87269,0 3.79343,0.58927 1.65733,1.1417 1.65733,3.20415 0,1.65733 -1.14171,2.72538 -1.14172,1.03122 -3.8671,1.03122 h -4.30904 q -9.17054,-14.17932 -15.21055,-17.05202 h -7.47638 z m 0,-7.55003 h 5.8927 q 3.27782,0 5.85588,-0.9944 3.46197,-1.32586 4.64051,-2.79905 1.21538,-1.47317 1.21538,-2.90951 0,-2.13611 -2.28343,-3.94076 -2.28342,-1.84147 -6.66613,-1.84147 h -8.65491 z" />
      <path
         inkscape:connector-curvature="0"
         id="path4178"
         style="font-style:normal;font-variant:normal;font-weight:bold;font-stretch:normal;font-size:medium;line-height:0%;font-family:'Courier New';-inkscape-font-specification:'Courier New, Bold';text-align:start;letter-spacing:0px;word-spacing:0px;writing-mode:lr-tb;text-anchor:start;fill:#ffffff;fill-opacity:1;stroke:none;stroke-width:1.11082613px;stroke-linecap:butt;stroke-linejoin:miter;stroke-opacity:1"
         d="m 655.12793,859.15419 v 11.08566 h 19.2618 v -4.08807 q 0,-2.72538 1.03122,-3.86709 1.06806,-1.17854 2.76221,-1.17854 1.65732,0 2.68855,1.17854 1.06806,1.14171 1.06806,3.86709 v 11.6381 h -35.54042 q -2.72537,0 -3.90391,-1.03123 -1.14172,-1.06804 -1.14172,-2.76219 0,-1.65734 1.17854,-2.68856 1.17855,-1.06805 3.86709,-1.06805 h 1.17856 v -29.53721 h -1.17856 q -2.72537,0 -3.90391,-1.03122 -1.14172,-1.06805 -1.14172,-2.76221 0,-1.69415 1.14172,-2.72537 1.17854,-1.06806 3.90391,-1.06806 l 33.88308,0.0369 v 11.49078 q 0,2.68855 -1.03122,3.8671 -1.03123,1.14171 -2.72538,1.14171 -1.69415,0 -2.7622,-1.14171 -1.03123,-1.14171 -1.03123,-3.8671 v -3.94074 h -17.60447 v 10.90151 h 6.6293 q 0,-2.94636 0.55244,-3.79343 1.14172,-1.80464 3.24099,-1.80464 1.65733,0 2.68855,1.17854 1.06805,1.14172 1.06805,3.86709 v 8.69175 q 0,2.46756 -0.58927,3.31464 -1.17854,1.73099 -3.16733,1.73099 -2.09927,0 -3.24099,-1.80465 -0.55244,-0.84707 -0.55244,-3.83025 h -6.6293 z" />
    </g>
  </g>
</svg>
