<?xml version="1.0" encoding="UTF-8" standalone="no"?>
<!-- Created with Inkscape (http://www.inkscape.org/) -->

<svg
   xmlns:dc="http://purl.org/dc/elements/1.1/"
   xmlns:cc="http://creativecommons.org/ns#"
   xmlns:rdf="http://www.w3.org/1999/02/22-rdf-syntax-ns#"
   xmlns:svg="http://www.w3.org/2000/svg"
   xmlns="http://www.w3.org/2000/svg"
   xmlns:sodipodi="http://sodipodi.sourceforge.net/DTD/sodipodi-0.dtd"
   xmlns:inkscape="http://www.inkscape.org/namespaces/inkscape"
   width="236.33376"
   height="99.246246"
   id="svg3876"
   version="1.1"
   inkscape:version="0.91 r"
   sodipodi:docname="nest-simulated.svg">
  <defs
     id="defs3878" />
  <sodipodi:namedview
     id="base"
     pagecolor="#ffffff"
     bordercolor="#666666"
     borderopacity="1.0"
     inkscape:pageopacity="0.0"
     inkscape:pageshadow="2"
     inkscape:zoom="5.6"
     inkscape:cx="110.71051"
     inkscape:cy="51.844768"
     inkscape:document-units="px"
     inkscape:current-layer="g4411"
     showgrid="false"
     fit-margin-top="0"
     fit-margin-left="0"
     fit-margin-right="0"
     fit-margin-bottom="0"
     inkscape:window-width="2560"
     inkscape:window-height="1388"
     inkscape:window-x="0"
     inkscape:window-y="0"
     inkscape:window-maximized="1" />
  <metadata
     id="metadata3881">
    <rdf:RDF>
      <cc:Work
         rdf:about="">
        <dc:format>image/svg+xml</dc:format>
        <dc:type
           rdf:resource="http://purl.org/dc/dcmitype/StillImage" />
        <dc:title />
      </cc:Work>
    </rdf:RDF>
  </metadata>
  <g
     inkscape:label="Layer 1"
     inkscape:groupmode="layer"
     id="layer1"
     transform="translate(-381.83313,-554.16763)">
    <g
       transform="translate(255.80027,-197.14286)"
       id="g4411">
      <path
         id="path4233"
         style="fill:#ff6633;fill-opacity:1;fill-rule:nonzero;stroke:none"
         d="m 362.36636,834.86299 c 0,8.09375 -6.4625,15.69375 -14.43875,15.69375 l -221.89375,0 -0.001,-84.5925 c 0,-8.0925 6.46375,-14.65375 14.44,-14.65375 l 207.455,0 c 7.97625,0 14.43875,6.56125 14.43875,14.65375 l 0,68.89875 z"
         inkscape:connector-curvature="0" />
      <path
         d="m 171.50137,798.40058 0,-12.062 c 0,-9.47199 -3.626,-14.208 -11.47,-14.208 -4.58799,0 -7.918,1.776 -10.212,5.254 l 0,-2.812 c 0,-0.962 -0.666,-1.554 -2.072,-1.554 l -6.142,0 c -3.03399,0 -4.514,0.962 -4.514,3.996 0,2.59 1.33201,3.922 3.922,3.922 0.148,0 0.37,0 0.592,0 l 0,17.464 c -0.148,0 -0.296,0 -0.444,0 -2.73799,0 -4.07,1.332 -4.07,3.996 0,2.96 1.40601,3.996 4.514,3.996 l 8.954,0 c 3.108,0 4.514,-1.036 4.514,-3.996 0,-2.664 -1.332,-3.996 -4.07,-3.996 -0.148,0 -0.296,0 -0.444,0 l 0,-10.434 c 0,-5.106 3.03401,-7.992 6.808,-7.992 4.144,0 5.254,2.738 5.254,7.992 l 0,10.434 c -0.148,0 -0.296,0 -0.444,0 -2.73799,0 -4.144,1.332 -4.144,3.996 0,2.96 1.48001,3.996 4.588,3.996 l 8.88,0 c 3.108,0 4.514,-1.036 4.514,-3.996 0,-2.664 -1.332,-3.996 -4.07,-3.996 -0.148,0 -0.296,0 -0.444,0"
         style="font-size:74px;font-style:normal;font-variant:normal;font-weight:bold;font-stretch:normal;text-align:start;line-height:0%;letter-spacing:-2.5px;word-spacing:0px;writing-mode:lr-tb;text-anchor:start;fill:#ffffff;fill-opacity:1;stroke:none;font-family:Courier 10 Pitch;-inkscape-font-specification:Courier 10 Pitch Bold"
         id="path4388"
         inkscape:connector-curvature="0" />
      <path
         d="m 188.505,791.81458 23.31,0 c 3.77399,0 5.254,-0.51801 5.254,-3.7 0,-8.43599 -7.10401,-15.91 -18.056,-15.91 -11.98799,0 -19.684,7.54801 -19.684,17.538 0,9.98999 7.77001,17.538 19.684,17.538 10.58199,0 17.464,-4.14401 17.464,-8.288 0,-2.146 -1.332,-3.552 -3.256,-3.552 -2.664,0 -6.14201,4.366 -13.912,4.366 -5.994,0 -9.546,-2.59001 -10.804,-7.992 m 0,-5.624 c 1.258,-4.736 4.44,-7.03 9.694,-7.03 5.40199,0 8.954,2.516 9.768,7.03 l -19.462,0"
         style="font-size:74px;font-style:normal;font-variant:normal;font-weight:bold;font-stretch:normal;text-align:start;line-height:0%;letter-spacing:-2.5px;word-spacing:0px;writing-mode:lr-tb;text-anchor:start;fill:#ffffff;fill-opacity:1;stroke:none;font-family:Courier 10 Pitch;-inkscape-font-specification:Courier 10 Pitch Bold"
         id="path4390"
         inkscape:connector-curvature="0" />
      <path
         d="m 230.81662,805.94858 c 3.478,0.962 6.95601,1.332 10.73,1.332 10.13799,0 15.54,-4.29201 15.54,-11.322 0,-7.10399 -5.10601,-9.25 -14.356,-10.582 -6.51199,-0.962 -9.472,-0.666 -9.472,-3.774 0,-2.072 1.99801,-3.478 5.92,-3.478 6.512,0 8.58401,5.18 12.21,5.18 1.924,0 3.108,-1.184 3.108,-3.256 l 0,-4.44 c 0,-2.442 -0.962,-3.7 -2.96,-3.7 -1.406,0 -2.59,0.592 -3.552,1.776 -3.40399,-1.036 -6.66,-1.554 -9.916,-1.554 -9.17599,0 -14.208,3.922 -14.208,10.656 0,5.77199 4.07001,9.028 12.432,10.212 7.844,1.11 11.248,1.11 11.248,4.514 0,1.924 -1.924,3.626 -5.698,3.626 -3.99599,0 -7.03,-1.036 -9.472,-3.182 -1.776,-1.628 -1.702,-3.7 -4.81,-3.7 -2.58999,0 -3.552,1.184 -3.552,4.366 l 0,4.884 c 0,2.516 0.51801,3.922 2.886,3.922 1.332,0 2.59,-0.518 3.922,-1.48"
         style="font-size:74px;font-style:normal;font-variant:normal;font-weight:bold;font-stretch:normal;text-align:start;line-height:0%;letter-spacing:-2.5px;word-spacing:0px;writing-mode:lr-tb;text-anchor:start;fill:#ffffff;fill-opacity:1;stroke:none;font-family:Courier 10 Pitch;-inkscape-font-specification:Courier 10 Pitch Bold"
         id="path4392"
         inkscape:connector-curvature="0" />
      <path
         d="m 267.57825,782.93458 3.404,0 0,9.25 c 0,0.296 0,0.592 0,0.814 0,4.36599 0.074,7.696 2.22,10.212 2.072,2.442 5.846,3.922 10.952,3.922 8.95399,0 16.502,-3.99601 16.502,-7.252 0,-2.516 -1.702,-4.144 -3.626,-4.144 -3.108,0 -6.66001,3.256 -11.766,3.256 -4.292,0 -5.402,-2.07201 -5.402,-6.808 l 0,-9.25 11.026,0 c 3.034,0 4.588,-0.962 4.588,-3.996 0,-3.034 -1.554,-3.922 -4.588,-3.922 l -11.026,0 0,-8.436 c 0,-3.108 -1.11001,-4.514 -4.514,-4.514 -2.812,0 -4.366,1.554 -4.366,3.034 0,0.148 0,0.592 0,1.48 l 0,8.436 -3.404,0 c -3.034,0 -4.514,0.888 -4.514,3.922 0,3.034 1.48,3.996 4.514,3.996"
         style="font-size:74px;font-style:normal;font-variant:normal;font-weight:bold;font-stretch:normal;text-align:start;line-height:0%;letter-spacing:-2.5px;word-spacing:0px;writing-mode:lr-tb;text-anchor:start;fill:#ffffff;fill-opacity:1;stroke:none;font-family:Courier 10 Pitch;-inkscape-font-specification:Courier 10 Pitch Bold"
         id="path4394"
         inkscape:connector-curvature="0" />
      <path
         id="path4239"
         d="m -123.5669,461.3093 c 0,4.63747 -4.31344,8.39689 -9.63433,8.39689 -5.3209,0 -9.63433,-3.75942 -9.63433,-8.39689 0,-4.63748 4.31343,-8.3969 9.63433,-8.3969 5.32089,0 9.63433,3.75942 9.63433,8.3969 z"
         style="fill:#ffffff;fill-opacity:1;stroke:none"
         transform="matrix(0.6746707,0,0,0.77409589,412.65589,420.84064)"
         inkscape:connector-curvature="0" />
      <path
         id="path4241"
         d="m -123.5669,461.3093 c 0,4.63747 -4.31344,8.39689 -9.63433,8.39689 -5.3209,0 -9.63433,-3.75942 -9.63433,-8.39689 0,-4.63748 4.31343,-8.3969 9.63433,-8.3969 5.32089,0 9.63433,3.75942 9.63433,8.3969 z"
         style="fill:#ffffff;fill-opacity:1;stroke:none"
         inkscape:connector-curvature="0"
         transform="matrix(0.6746707,0,0,0.77409589,434.65589,420.84064)" />
      <path
         id="path4243"
         d="m -123.5669,461.3093 c 0,4.63747 -4.31344,8.39689 -9.63433,8.39689 -5.3209,0 -9.63433,-3.75942 -9.63433,-8.39689 0,-4.63748 4.31343,-8.3969 9.63433,-8.3969 5.32089,0 9.63433,3.75942 9.63433,8.3969 z"
         style="fill:#ffffff;fill-opacity:1;stroke:none"
         inkscape:connector-curvature="0"
         transform="matrix(0.6746707,0,0,0.77409589,434.65589,442.84064)" />
      <path
         id="path4245"
         d="m -123.5669,461.3093 c 0,4.63747 -4.31344,8.39689 -9.63433,8.39689 -5.3209,0 -9.63433,-3.75942 -9.63433,-8.39689 0,-4.63748 4.31343,-8.3969 9.63433,-8.3969 5.32089,0 9.63433,3.75942 9.63433,8.3969 z"
         style="fill:#ffffff;fill-opacity:1;stroke:none"
         transform="matrix(0.6746707,0,0,0.77409589,412.65589,442.84064)"
         inkscape:connector-curvature="0" />
      <text
         xml:space="preserve"
         style="font-style:normal;font-variant:normal;font-weight:bold;font-stretch:normal;font-size:40px;line-height:0%;font-family:'Courier New';-inkscape-font-specification:'Courier New, Bold';text-align:start;letter-spacing:0px;word-spacing:0px;writing-mode:lr-tb;text-anchor:start;fill:#ffffff;fill-opacity:1;stroke:none;stroke-width:1px;stroke-linecap:butt;stroke-linejoin:miter;stroke-opacity:1"
         x="216.29977"
         y="840.11743"
         id="text4241-8"
         sodipodi:linespacing="0%"><tspan
           sodipodi:role="line"
           id="tspan4243-1"
           x="216.29977"
           y="840.11743"
           style="line-height:0%;letter-spacing:0px">S</tspan></text>
      <text
         xml:space="preserve"
         style="font-style:normal;font-variant:normal;font-weight:bold;font-stretch:normal;font-size:40px;line-height:0%;font-family:'Courier New';-inkscape-font-specification:'Courier New, Bold';text-align:start;letter-spacing:0px;word-spacing:0px;writing-mode:lr-tb;text-anchor:start;fill:#ffffff;fill-opacity:1;stroke:none;stroke-width:1px;stroke-linecap:butt;stroke-linejoin:miter;stroke-opacity:1"
         x="243.55832"
         y="840.70337"
         id="text4241-8-5"
         sodipodi:linespacing="0%"><tspan
           sodipodi:role="line"
           id="tspan4243-1-0"
           x="243.55832"
           y="840.70337"
           style="line-height:0%;letter-spacing:0px">P</tspan></text>
      <text
         xml:space="preserve"
         style="font-style:normal;font-variant:normal;font-weight:bold;font-stretch:normal;font-size:40px;line-height:0%;font-family:'Courier New';-inkscape-font-specification:'Courier New, Bold';text-align:start;letter-spacing:0px;word-spacing:0px;writing-mode:lr-tb;text-anchor:start;fill:#ffffff;fill-opacity:1;stroke:none;stroke-width:1px;stroke-linecap:butt;stroke-linejoin:miter;stroke-opacity:1"
         x="272.22314"
         y="840.11743"
         id="text4241-8-8"
         sodipodi:linespacing="0%"><tspan
           sodipodi:role="line"
           id="tspan4243-1-3"
           x="272.22314"
           y="840.11743"
           style="line-height:0%;letter-spacing:0px">O</tspan><tspan
           sodipodi:role="line"
           x="272.22314"
           y="840.11743"
           style="line-height:0%;letter-spacing:0px"
           id="tspan4301" /></text>
      <text
         xml:space="preserve"
         style="font-style:normal;font-variant:normal;font-weight:bold;font-stretch:normal;font-size:40px;line-height:0%;font-family:'Courier New';-inkscape-font-specification:'Courier New, Bold';text-align:start;letter-spacing:0px;word-spacing:0px;writing-mode:lr-tb;text-anchor:start;fill:#ffffff;fill-opacity:1;stroke:none;stroke-width:1px;stroke-linecap:butt;stroke-linejoin:miter;stroke-opacity:1"
         x="299.49142"
         y="840.70337"
         id="text4241-8-2"
         sodipodi:linespacing="0%"><tspan
           sodipodi:role="line"
           id="tspan4243-1-1"
           x="299.49142"
           y="840.70337"
           style="line-height:0%;letter-spacing:0px">R </tspan></text>
      <text
         xml:space="preserve"
         style="font-style:normal;font-variant:normal;font-weight:bold;font-stretch:normal;font-size:40px;line-height:0%;font-family:'Courier New';-inkscape-font-specification:'Courier New, Bold';text-align:start;letter-spacing:0px;word-spacing:0px;writing-mode:lr-tb;text-anchor:start;fill:#ffffff;fill-opacity:1;stroke:none;stroke-width:1px;stroke-linecap:butt;stroke-linejoin:miter;stroke-opacity:1"
         x="328.80075"
         y="840.70337"
         id="text4241-8-7"
         sodipodi:linespacing="0%"><tspan
           sodipodi:role="line"
           id="tspan4243-1-8"
           x="328.80075"
           y="840.70337"
           style="line-height:0%;letter-spacing:0px">E</tspan></text>
      <text
         xml:space="preserve"
         style="font-style:normal;font-variant:normal;font-weight:bold;font-stretch:normal;font-size:30px;line-height:0%;font-family:'Courier New';-inkscape-font-specification:'Courier New, Bold';text-align:start;letter-spacing:0px;word-spacing:0px;writing-mode:lr-tb;text-anchor:start;fill:#ffffff;fill-opacity:1;stroke:none;stroke-width:1px;stroke-linecap:butt;stroke-linejoin:miter;stroke-opacity:1"
         x="197.57704"
         y="836.79712"
         id="text4241-8-3"
         sodipodi:linespacing="0%"><tspan
           sodipodi:role="line"
           id="tspan4243-1-4"
           x="197.57704"
           y="836.79712"
           style="font-style:normal;font-variant:normal;font-weight:bold;font-stretch:normal;font-size:30px;line-height:0%;font-family:'Courier New';-inkscape-font-specification:'Courier New, Bold';text-align:start;letter-spacing:0px;writing-mode:lr-tb;text-anchor:start">+</tspan></text>
    </g>
  </g>
</svg>
