<?xml version="1.0" encoding="UTF-8" standalone="no"?>
<!-- Created with Inkscape (http://www.inkscape.org/) -->

<svg
   xmlns:dc="http://purl.org/dc/elements/1.1/"
   xmlns:cc="http://creativecommons.org/ns#"
   xmlns:rdf="http://www.w3.org/1999/02/22-rdf-syntax-ns#"
   xmlns:svg="http://www.w3.org/2000/svg"
   xmlns="http://www.w3.org/2000/svg"
   xmlns:sodipodi="http://sodipodi.sourceforge.net/DTD/sodipodi-0.dtd"
   xmlns:inkscape="http://www.inkscape.org/namespaces/inkscape"
   width="550.09998"
   height="99.246246"
   id="svg3876"
   version="1.1"
   inkscape:version="0.91 r"
   sodipodi:docname="nest-spore-header.svg">
  <defs
     id="defs3878" />
  <sodipodi:namedview
     id="base"
     pagecolor="#ffffff"
     bordercolor="#666666"
     borderopacity="1.0"
     inkscape:pageopacity="0.0"
     inkscape:pageshadow="2"
     inkscape:zoom="1.4"
     inkscape:cx="291.70082"
     inkscape:cy="21.516622"
     inkscape:document-units="px"
     inkscape:current-layer="g4411"
     showgrid="false"
     fit-margin-top="0"
     fit-margin-left="0"
     fit-margin-right="0"
     fit-margin-bottom="0"
     inkscape:window-width="1680"
     inkscape:window-height="998"
     inkscape:window-x="0"
     inkscape:window-y="0"
     inkscape:window-maximized="1"
     showguides="false"
     inkscape:guide-bbox="true" />
  <metadata
     id="metadata3881">
    <rdf:RDF>
      <cc:Work
         rdf:about="">
        <dc:format>image/svg+xml</dc:format>
        <dc:type
           rdf:resource="http://purl.org/dc/dcmitype/StillImage" />
        <dc:title></dc:title>
      </cc:Work>
    </rdf:RDF>
  </metadata>
  <g
     inkscape:label="Layer 1"
     inkscape:groupmode="layer"
     id="layer1"
     transform="translate(-381.83313,-554.16763)">
    <g
       transform="translate(255.80027,-197.14286)"
       id="g4411">
      <path
         id="path4233"
         style="fill:#ff6633;fill-opacity:1;fill-rule:nonzero;stroke:none"
         d="m 676.13256,834.86299 c 0,8.09375 -6.4625,15.69375 -14.43875,15.69375 l -535.65995,0 -0.001,-84.5925 c 0,-8.0925 6.46375,-14.65375 14.44,-14.65375 l 521.2212,0 c 7.97625,0 14.43875,6.56125 14.43875,14.65375 l 0,68.89875 z"
         inkscape:connector-curvature="0"
         sodipodi:nodetypes="csccssscc" />
      <path
         d="m 193.95631,812.88387 0,-13.11954 c 0,-10.30246 -3.94392,-15.4537 -12.47564,-15.4537 -4.99025,0 -8.61222,1.93171 -11.10735,5.71465 l 0,-3.05855 c 0,-1.04634 -0.72439,-1.69025 -2.25367,-1.69025 l -6.6805,0 c -3.3,0 -4.90977,1.04635 -4.90977,4.34636 0,2.81708 1.4488,4.26586 4.26586,4.26586 0.16098,0 0.40244,0 0.64391,0 l 0,18.99517 c -0.16098,0 -0.32195,0 -0.48293,0 -2.97804,0 -4.42684,1.44879 -4.42684,4.34635 0,3.21953 1.52928,4.34636 4.90977,4.34636 l 9.73905,0 c 3.3805,0 4.90977,-1.12683 4.90977,-4.34636 0,-2.89756 -1.44879,-4.34635 -4.42684,-4.34635 -0.16098,0 -0.32195,0 -0.48293,0 l 0,-11.34881 c 0,-5.55367 3.30002,-8.6927 7.4049,-8.6927 4.50733,0 5.71465,2.97805 5.71465,8.6927 l 0,11.34881 c -0.16098,0 -0.32196,0 -0.48293,0 -2.97805,0 -4.50733,1.44879 -4.50733,4.34635 0,3.21953 1.60977,4.34636 4.99026,4.34636 l 9.65856,0 c 3.38049,0 4.90977,-1.12683 4.90977,-4.34636 0,-2.89756 -1.44879,-4.34635 -4.42684,-4.34635 -0.16098,0 -0.32196,0 -0.48293,0"
         style="font-style:normal;font-variant:normal;font-weight:bold;font-stretch:normal;font-size:74px;line-height:0%;font-family:'Courier 10 Pitch';-inkscape-font-specification:'Courier 10 Pitch Bold';text-align:start;letter-spacing:-2.5px;word-spacing:0px;writing-mode:lr-tb;text-anchor:start;fill:#ffffff;fill-opacity:1;stroke:none"
         id="path4388"
         inkscape:connector-curvature="0" />
      <path
         d="m 212.45075,805.72044 25.35372,0 c 4.10488,0 5.71465,-0.56343 5.71465,-4.0244 0,-9.17563 -7.72686,-17.30493 -19.63908,-17.30493 -13.03904,0 -21.40981,8.20979 -21.40981,19.07566 0,10.86588 8.45125,19.07566 21.40981,19.07566 11.50978,0 18.99518,-4.50734 18.99518,-9.01465 0,-2.33416 -1.44879,-3.86343 -3.54148,-3.86343 -2.89756,0 -6.68051,4.74879 -15.13174,4.74879 -6.51953,0 -10.38296,-2.81709 -11.75125,-8.6927 m 0,-6.11709 c 1.36829,-5.15123 4.82928,-7.64636 10.54393,-7.64636 5.87561,0 9.73905,2.73659 10.62441,7.64636 l -21.16834,0"
         style="font-style:normal;font-variant:normal;font-weight:bold;font-stretch:normal;font-size:74px;line-height:0%;font-family:'Courier 10 Pitch';-inkscape-font-specification:'Courier 10 Pitch Bold';text-align:start;letter-spacing:-2.5px;word-spacing:0px;writing-mode:lr-tb;text-anchor:start;fill:#ffffff;fill-opacity:1;stroke:none"
         id="path4390"
         inkscape:connector-curvature="0" />
      <path
         d="m 258.47208,821.09365 c 3.78293,1.04634 7.56588,1.44878 11.67076,1.44878 11.02685,0 16.90248,-4.66831 16.90248,-12.31466 0,-7.72684 -5.55368,-10.061 -15.61467,-11.50979 -7.08294,-1.04634 -10.30247,-0.72439 -10.30247,-4.10489 0,-2.25366 2.17319,-3.78293 6.43904,-3.78293 7.08295,0 9.33662,5.63416 13.28052,5.63416 2.09269,0 3.3805,-1.28781 3.3805,-3.54148 l 0,-4.82928 c 0,-2.6561 -1.04634,-4.0244 -3.21952,-4.0244 -1.52927,0 -2.81708,0.64391 -3.86342,1.93171 -3.70244,-1.12683 -7.24393,-1.69024 -10.7854,-1.69024 -9.9805,0 -15.4537,4.26586 -15.4537,11.59027 0,6.27805 4.42685,9.81954 13.52199,11.10735 8.53173,1.20732 12.23418,1.20732 12.23418,4.90977 0,2.09268 -2.09269,3.94391 -6.19758,3.94391 -4.34634,0 -7.64636,-1.12683 -10.30247,-3.46099 -1.93171,-1.77073 -1.85122,-4.0244 -5.23172,-4.0244 -2.81707,0 -3.86342,1.28781 -3.86342,4.7488 l 0,5.31221 c 0,2.73659 0.56343,4.26586 3.13903,4.26586 1.44879,0 2.81708,-0.56342 4.26587,-1.60976"
         style="font-style:normal;font-variant:normal;font-weight:bold;font-stretch:normal;font-size:74px;line-height:0%;font-family:'Courier 10 Pitch';-inkscape-font-specification:'Courier 10 Pitch Bold';text-align:start;letter-spacing:-2.5px;word-spacing:0px;writing-mode:lr-tb;text-anchor:start;fill:#ffffff;fill-opacity:1;stroke:none"
         id="path4392"
         inkscape:connector-curvature="0" />
      <path
         d="m 298.45681,796.06188 3.70245,0 0,10.061 c 0,0.32195 0,0.6439 0,0.88537 0,4.74878 0.0805,8.37075 2.41464,11.10734 2.25367,2.65611 6.35856,4.26587 11.91223,4.26587 9.73904,0 17.94883,-4.34637 17.94883,-7.88783 0,-2.73659 -1.85123,-4.50733 -3.94391,-4.50733 -3.3805,0 -7.24394,3.54148 -12.7976,3.54148 -4.6683,0 -5.87562,-2.25368 -5.87562,-7.4049 l 0,-10.061 11.99271,0 c 3.30001,0 4.99026,-1.04635 4.99026,-4.34636 0,-3.30001 -1.69025,-4.26586 -4.99026,-4.26586 l -11.99271,0 0,-9.17564 c 0,-3.38049 -1.20734,-4.90976 -4.90977,-4.90976 -3.05855,0 -4.7488,1.69024 -4.7488,3.3 0,0.16098 0,0.64391 0,1.60976 l 0,9.17564 -3.70245,0 c -3.3,0 -4.90976,0.96585 -4.90976,4.26586 0,3.30001 1.60976,4.34636 4.90976,4.34636"
         style="font-style:normal;font-variant:normal;font-weight:bold;font-stretch:normal;font-size:74px;line-height:0%;font-family:'Courier 10 Pitch';-inkscape-font-specification:'Courier 10 Pitch Bold';text-align:start;letter-spacing:-2.5px;word-spacing:0px;writing-mode:lr-tb;text-anchor:start;fill:#ffffff;fill-opacity:1;stroke:none"
         id="path4394"
         inkscape:connector-curvature="0" />
      <path
         id="path4239"
         d="m 365.57802,790.62752 c 0,3.90458 -3.1653,7.06988 -7.06989,7.06988 -3.90459,0 -7.06989,-3.1653 -7.06989,-7.06988 0,-3.9046 3.1653,-7.0699 7.06989,-7.0699 3.90459,0 7.06989,3.1653 7.06989,7.0699 z"
         style="fill:#ffffff;fill-opacity:1;stroke:none"
         inkscape:connector-curvature="0" />
      <path
         id="path4241"
         d="m 389.50689,790.62752 c 0,3.90458 -3.1653,7.06988 -7.06989,7.06988 -3.90459,0 -7.06989,-3.1653 -7.06989,-7.06988 0,-3.9046 3.1653,-7.0699 7.06989,-7.0699 3.90459,0 7.06989,3.1653 7.06989,7.0699 z"
         style="fill:#ffffff;fill-opacity:1;stroke:none"
         inkscape:connector-curvature="0" />
      <path
         id="path4243"
         d="m 389.50689,814.55639 c 0,3.90458 -3.1653,7.06988 -7.06989,7.06988 -3.90459,0 -7.06989,-3.1653 -7.06989,-7.06988 0,-3.9046 3.1653,-7.0699 7.06989,-7.0699 3.90459,0 7.06989,3.1653 7.06989,7.0699 z"
         style="fill:#ffffff;fill-opacity:1;stroke:none"
         inkscape:connector-curvature="0" />
      <path
         id="path4245"
         d="m 365.57802,814.55639 c 0,3.90458 -3.1653,7.06988 -7.06989,7.06988 -3.90459,0 -7.06989,-3.1653 -7.06989,-7.06988 0,-3.9046 3.1653,-7.0699 7.06989,-7.0699 3.90459,0 7.06989,3.1653 7.06989,7.0699 z"
         style="fill:#ffffff;fill-opacity:1;stroke:none"
         inkscape:connector-curvature="0" />
      <g
         style="font-style:normal;font-variant:normal;font-weight:bold;font-stretch:normal;font-size:67.90142822px;line-height:0%;font-family:'Courier New';-inkscape-font-specification:'Courier New, Bold';text-align:start;letter-spacing:0px;word-spacing:0px;writing-mode:lr-tb;text-anchor:start;fill:#ffffff;fill-opacity:1;stroke:none;stroke-width:1px;stroke-linecap:butt;stroke-linejoin:miter;stroke-opacity:1"
         id="text4241-8"
         transform="matrix(1.0413995,0,0,1.0413995,-18.285047,-32.622353)">
        <path
           d="m 413.39924,818.82037 q -0.89519,1.06096 -1.45882,1.35936 -0.53048,0.29839 -1.3262,0.29839 -1.55829,0 -2.51978,-1.0278 -0.92834,-1.06096 -0.92834,-3.48128 l 0,-4.57538 q 0,-2.45347 0.92834,-3.48128 0.96149,-1.06096 2.51978,-1.06096 1.19358,0 1.9893,0.62995 0.82887,0.62994 1.25989,2.12192 0.43101,1.45882 0.89518,1.9893 0.9615,1.0278 3.41497,2.08876 2.45347,1.06096 5.37111,1.06096 4.54223,0 7.45987,-2.12192 1.85668,-1.29304 1.85668,-3.18288 0,-1.25989 -0.89519,-2.354 -0.89518,-1.12727 -2.91764,-1.85668 -1.3262,-0.49733 -5.93474,-1.35936 -5.57004,-1.0278 -8.42137,-2.48662 -2.85133,-1.45882 -4.50908,-4.11122 -1.65775,-2.6524 -1.65775,-5.73582 0,-4.87378 4.07807,-8.52083 4.07806,-3.6802 10.6096,-3.6802 2.61924,0 4.84062,0.59679 2.25454,0.56363 4.07807,1.75721 1.3262,-1.29304 2.6524,-1.29304 1.49197,0 2.42031,1.06096 0.9615,1.0278 0.9615,3.44811 l 0,5.10587 q 0,2.45347 -0.9615,3.51443 -0.92834,1.02781 -2.42031,1.02781 -1.25989,0 -2.18823,-0.76257 -0.72941,-0.56363 -1.09412,-2.25454 -0.3647,-1.6909 -0.92834,-2.42031 -0.96149,-1.25989 -2.88448,-2.12192 -1.92299,-0.86203 -4.44277,-0.86203 -3.6802,0 -5.83528,1.72406 -2.12192,1.6909 -2.12192,3.54758 0,1.25989 0.86203,2.45347 0.89519,1.16043 2.58609,1.82353 1.12727,0.46417 6.3326,1.49197 5.23849,1.02781 8.02351,2.25454 2.81818,1.22674 4.67486,3.84598 1.85668,2.61925 1.85668,6.23314 0,5.03956 -3.54759,8.05666 -4.70801,3.9786 -12.0021,3.9786 -2.81818,0 -5.50373,-0.69625 -2.6524,-0.6631 -5.17218,-2.02246 z"
           style="line-height:0%;letter-spacing:0px"
           id="path4190"
           inkscape:connector-curvature="0" />
      </g>
      <g
         style="font-style:normal;font-variant:normal;font-weight:bold;font-stretch:normal;font-size:67.90142822px;line-height:0%;font-family:'Courier New';-inkscape-font-specification:'Courier New, Bold';text-align:start;letter-spacing:0px;word-spacing:0px;writing-mode:lr-tb;text-anchor:start;fill:#ffffff;fill-opacity:1;stroke:none;stroke-width:1px;stroke-linecap:butt;stroke-linejoin:miter;stroke-opacity:1"
         id="text4241-8-5"
         transform="matrix(1.0413995,0,0,1.0413995,-18.285047,-32.622353)">
        <path
           d="m 465.67263,807.74658 0,6.99571 6.86308,0 q 2.45347,0 3.48128,0.96149 1.06096,0.92834 1.06096,2.45347 0,1.49198 -1.06096,2.45347 -1.02781,0.92834 -3.48128,0.92834 l -14.72081,0 q -2.45347,0 -3.51443,-0.92834 -1.02781,-0.96149 -1.02781,-2.48662 0,-1.49198 1.06096,-2.42032 1.06096,-0.96149 3.48128,-0.96149 l 1.06096,0 0,-26.59031 -1.06096,0 q -2.45347,0 -3.51443,-0.92834 -1.02781,-0.96149 -1.02781,-2.48662 0,-1.52513 1.02781,-2.45347 1.06096,-0.9615 3.51443,-0.9615 l 15.64915,0.0332 q 6.89624,0 10.908,3.77967 4.04491,3.74651 4.04491,9.15078 0,2.98395 -1.35936,5.63635 -1.0278,1.9893 -3.44812,3.94544 -2.38716,1.92299 -4.90694,2.91764 -2.48662,0.96149 -6.59784,0.96149 l -6.43207,0 z m 0,-6.79677 6.29945,0 q 4.44277,0 7.02886,-1.9893 2.61924,-2.02245 2.61924,-4.84063 0,-2.38716 -2.12192,-4.17753 -2.08876,-1.79037 -6.00105,-1.79037 l -7.82458,0 0,12.79783 z"
           style="line-height:0%;letter-spacing:0px"
           id="path4187"
           inkscape:connector-curvature="0" />
      </g>
      <g
         style="font-style:normal;font-variant:normal;font-weight:bold;font-stretch:normal;font-size:67.90142822px;line-height:0%;font-family:'Courier New';-inkscape-font-specification:'Courier New, Bold';text-align:start;letter-spacing:0px;word-spacing:0px;writing-mode:lr-tb;text-anchor:start;fill:#ffffff;fill-opacity:1;stroke:none;stroke-width:1px;stroke-linecap:butt;stroke-linejoin:miter;stroke-opacity:1"
         id="text4241-8-8"
         transform="matrix(1.0413995,0,0,1.0413995,-18.285047,-32.622353)">
        <path
           d="m 537.34174,800.45251 q 0,9.05131 -5.76897,15.08552 -5.73581,6.00105 -13.29515,6.00105 -6.79677,0 -12.26735,-5.0064 -6.76362,-6.19998 -6.76362,-16.08017 0,-9.88019 6.76362,-16.11333 5.47058,-5.0064 12.26735,-5.0064 7.55934,0 13.29515,6.0342 5.76897,6.00106 5.76897,15.08553 z m -6.79677,0 q 0,-6.19999 -3.74652,-10.2449 -3.74651,-4.07806 -8.52083,-4.07806 -4.74116,0 -8.48768,4.07806 -3.74651,4.07807 -3.74651,10.2449 0,6.16683 3.74651,10.24489 3.74652,4.04491 8.48768,4.04491 4.77432,0 8.52083,-4.04491 3.74652,-4.04491 3.74652,-10.24489 z"
           style="line-height:0%;letter-spacing:0px"
           id="path4184"
           inkscape:connector-curvature="0" />
      </g>
      <g
         style="font-style:normal;font-variant:normal;font-weight:bold;font-stretch:normal;font-size:67.90142822px;line-height:0%;font-family:'Courier New';-inkscape-font-specification:'Courier New, Bold';text-align:start;letter-spacing:0px;word-spacing:0px;writing-mode:lr-tb;text-anchor:start;fill:#ffffff;fill-opacity:1;stroke:none;stroke-width:1px;stroke-linecap:butt;stroke-linejoin:miter;stroke-opacity:1"
         id="text4241-8-2"
         transform="matrix(1.0413995,0,0,1.0413995,-18.285047,-32.622353)">
        <path
           d="m 557.53767,806.1883 0,8.55399 2.45347,0 q 2.45347,0 3.48128,0.96149 1.06095,0.92834 1.06095,2.45347 0,1.49198 -1.06095,2.45347 -1.02781,0.92834 -3.48128,0.92834 l -10.3112,0 q -2.45347,0 -3.51443,-0.92834 -1.02781,-0.96149 -1.02781,-2.48662 0,-1.49198 1.06096,-2.42032 1.06096,-0.96149 3.48128,-0.96149 l 1.06096,0 0,-26.59031 -1.06096,0 q -2.45347,0 -3.51443,-0.92834 -1.02781,-0.96149 -1.02781,-2.48662 0,-1.52513 1.02781,-2.45347 1.06096,-0.9615 3.51443,-0.9615 l 15.38391,0.0332 q 7.19464,0 11.14008,3.58074 3.9786,3.54758 3.9786,8.65345 0,3.18288 -1.85668,5.80213 -1.85668,2.58609 -5.60319,4.60854 2.15507,1.88984 4.60854,4.84063 1.52513,1.88983 4.11122,5.90159 2.58609,0 3.41497,0.53048 1.49197,1.0278 1.49197,2.88448 0,1.49198 -1.0278,2.45347 -1.02781,0.92834 -3.48128,0.92834 l -3.87913,0 q -8.2556,-12.76467 -13.69301,-15.35076 l -6.73047,0 z m 0,-6.79677 5.3048,0 q 2.95079,0 5.27164,-0.89519 3.11657,-1.19358 4.17753,-2.51978 1.09412,-1.3262 1.09412,-2.61924 0,-1.92299 -2.05561,-3.54759 -2.05561,-1.65775 -6.00106,-1.65775 l -7.79142,0 0,11.23955 z"
           style="line-height:0%;letter-spacing:0px"
           id="path4181"
           inkscape:connector-curvature="0" />
      </g>
      <g
         style="font-style:normal;font-variant:normal;font-weight:bold;font-stretch:normal;font-size:67.90142822px;line-height:0%;font-family:'Courier New';-inkscape-font-specification:'Courier New, Bold';text-align:start;letter-spacing:0px;word-spacing:0px;writing-mode:lr-tb;text-anchor:start;fill:#ffffff;fill-opacity:1;stroke:none;stroke-width:1px;stroke-linecap:butt;stroke-linejoin:miter;stroke-opacity:1"
         id="text4241-8-7"
         transform="matrix(1.0413995,0,0,1.0413995,-18.285047,-32.622353)">
        <path
           d="m 607.32455,804.76264 0,9.97965 17.34006,0 0,-3.68021 q 0,-2.45347 0.92834,-3.48127 0.9615,-1.06096 2.48663,-1.06096 1.49197,0 2.42031,1.06096 0.9615,1.0278 0.9615,3.48127 l 0,10.47698 -31.99457,0 q -2.45347,0 -3.51443,-0.92834 -1.02781,-0.96149 -1.02781,-2.48662 0,-1.49198 1.06096,-2.42032 1.06096,-0.96149 3.48128,-0.96149 l 1.06096,0 0,-26.59031 -1.06096,0 q -2.45347,0 -3.51443,-0.92834 -1.02781,-0.96149 -1.02781,-2.48662 0,-1.52513 1.02781,-2.45347 1.06096,-0.9615 3.51443,-0.9615 l 30.50259,0.0332 0,10.34436 q 0,2.42031 -0.92834,3.48127 -0.92834,1.02781 -2.45347,1.02781 -1.52513,0 -2.48662,-1.02781 -0.92834,-1.0278 -0.92834,-3.48127 l 0,-3.54759 -15.84809,0 0,9.81388 5.9679,0 q 0,-2.6524 0.49732,-3.41496 1.02781,-1.6246 2.91764,-1.6246 1.49198,0 2.42032,1.06096 0.96149,1.02781 0.96149,3.48128 l 0,7.82458 q 0,2.22138 -0.53048,2.98394 -1.06096,1.55829 -2.85133,1.55829 -1.88983,0 -2.91764,-1.6246 -0.49732,-0.76256 -0.49732,-3.44811 l -5.9679,0 z"
           style="line-height:0%;letter-spacing:0px"
           id="path4178"
           inkscape:connector-curvature="0" />
      </g>
    </g>
  </g>
</svg>
