<?xml version="1.0" encoding="UTF-8" standalone="no"?>
<!-- Created with Inkscape (http://www.inkscape.org/) -->

<svg
   xmlns:dc="http://purl.org/dc/elements/1.1/"
   xmlns:cc="http://creativecommons.org/ns#"
   xmlns:rdf="http://www.w3.org/1999/02/22-rdf-syntax-ns#"
   xmlns:svg="http://www.w3.org/2000/svg"
   xmlns="http://www.w3.org/2000/svg"
   xmlns:sodipodi="http://sodipodi.sourceforge.net/DTD/sodipodi-0.dtd"
   xmlns:inkscape="http://www.inkscape.org/namespaces/inkscape"
   width="252.08934"
   height="105.86266"
   id="svg3876"
   version="1.1"
   inkscape:version="0.92.1 r"
   sodipodi:docname="nest-spore.svg">
  <defs
     id="defs3878" />
  <sodipodi:namedview
     id="base"
     pagecolor="#ffffff"
     bordercolor="#666666"
     borderopacity="1.0"
     inkscape:pageopacity="0.0"
     inkscape:pageshadow="2"
     inkscape:zoom="2.8"
     inkscape:cx="54.838421"
     inkscape:cy="31.826093"
     inkscape:document-units="px"
     inkscape:current-layer="g4411"
     showgrid="false"
     fit-margin-top="0"
     fit-margin-left="0"
     fit-margin-right="0"
     fit-margin-bottom="0"
     inkscape:window-width="1600"
     inkscape:window-height="876"
     inkscape:window-x="166"
     inkscape:window-y="1200"
     inkscape:window-maximized="1" />
  <metadata
     id="metadata3881">
    <rdf:RDF>
      <cc:Work
         rdf:about="">
        <dc:format>image/svg+xml</dc:format>
        <dc:type
           rdf:resource="http://purl.org/dc/dcmitype/StillImage" />
        <dc:title />
      </cc:Work>
    </rdf:RDF>
  </metadata>
  <g
     inkscape:label="Layer 1"
     inkscape:groupmode="layer"
     id="layer1"
     transform="translate(-407.28867,-591.11214)">
    <g
       transform="translate(272.85362,-210.28572)"
       id="g4411">
      <path
         id="path4233"
         style="fill:#ff6633;fill-opacity:1;fill-rule:nonzero;stroke:none;stroke-width:1.06666672"
         d="m 386.52412,890.52052 c 0,8.63334 -6.89334,16.74 -15.40134,16.74 H 134.43612 l -10e-4,-90.232 c 0,-8.632 6.89467,-15.63066 15.40267,-15.63066 h 221.28533 c 8.508,0 15.40133,6.99866 15.40133,15.63066 v 73.492 z"
         inkscape:connector-curvature="0" />
      <path
         d="m 182.93479,851.62729 v -12.86614 c 0,-10.10345 -3.86773,-15.1552 -12.23466,-15.1552 -4.89386,0 -8.44587,1.8944 -10.8928,5.60427 v -2.99947 c 0,-1.02613 -0.7104,-1.6576 -2.21014,-1.6576 h -6.55146 c -3.23626,0 -4.81494,1.02614 -4.81494,4.2624 0,2.76267 1.42082,4.18347 4.18347,4.18347 0.15787,0 0.39467,0 0.63147,0 v 18.62827 c -0.15787,0 -0.31574,0 -0.4736,0 -2.92052,0 -4.34134,1.4208 -4.34134,4.2624 0,3.15733 1.49975,4.2624 4.81494,4.2624 h 9.55093 c 3.3152,0 4.81493,-1.10507 4.81493,-4.2624 0,-2.8416 -1.4208,-4.2624 -4.34133,-4.2624 -0.15787,0 -0.31573,0 -0.4736,0 v -11.1296 c 0,-5.4464 3.23628,-8.5248 7.26187,-8.5248 4.42026,0 5.60426,2.92053 5.60426,8.5248 v 11.1296 c -0.15786,0 -0.31573,0 -0.4736,0 -2.92052,0 -4.42026,1.4208 -4.42026,4.2624 0,3.15733 1.57868,4.2624 4.89386,4.2624 h 9.472 c 3.3152,0 4.81494,-1.10507 4.81494,-4.2624 0,-2.8416 -1.4208,-4.2624 -4.34134,-4.2624 -0.15786,0 -0.31573,0 -0.4736,0"
         style="font-style:normal;font-variant:normal;font-weight:bold;font-stretch:normal;font-size:74px;line-height:0%;font-family:'Courier 10 Pitch';-inkscape-font-specification:'Courier 10 Pitch Bold';text-align:start;letter-spacing:-2.5px;word-spacing:0px;writing-mode:lr-tb;text-anchor:start;fill:#ffffff;fill-opacity:1;stroke:none;stroke-width:1.06666672"
         id="path4388"
         inkscape:connector-curvature="0" />
      <path
         d="m 201.072,844.60222 h 24.864 c 4.02559,0 5.60427,-0.55255 5.60427,-3.94667 0,-8.99839 -7.57761,-16.97066 -19.25974,-16.97066 -12.78719,0 -20.99626,8.05121 -20.99626,18.7072 0,10.65598 8.28801,18.7072 20.99626,18.7072 11.28746,0 18.62827,-4.42028 18.62827,-8.84054 0,-2.28906 -1.4208,-3.7888 -3.47307,-3.7888 -2.8416,0 -6.55147,4.65707 -14.83946,4.65707 -6.3936,0 -10.1824,-2.76268 -11.52427,-8.5248 m 0,-5.99893 c 1.34187,-5.05174 4.736,-7.49867 10.34027,-7.49867 5.76212,0 9.55093,2.68373 10.4192,7.49867 H 201.072"
         style="font-style:normal;font-variant:normal;font-weight:bold;font-stretch:normal;font-size:74px;line-height:0%;font-family:'Courier 10 Pitch';-inkscape-font-specification:'Courier 10 Pitch Bold';text-align:start;letter-spacing:-2.5px;word-spacing:0px;writing-mode:lr-tb;text-anchor:start;fill:#ffffff;fill-opacity:1;stroke:none;stroke-width:1.06666672"
         id="path4390"
         inkscape:connector-curvature="0" />
      <path
         d="m 246.20439,859.67849 c 3.70987,1.02613 7.41975,1.4208 11.44534,1.4208 10.81385,0 16.576,-4.57815 16.576,-12.0768 0,-7.57759 -5.44641,-9.86667 -15.31307,-11.28747 -6.94612,-1.02613 -10.10347,-0.7104 -10.10347,-4.0256 0,-2.21013 2.13122,-3.70987 6.31467,-3.70987 6.94613,0 9.15628,5.52534 13.024,5.52534 2.05227,0 3.3152,-1.26294 3.3152,-3.47307 v -4.736 c 0,-2.6048 -1.02613,-3.94667 -3.15733,-3.94667 -1.49974,0 -2.76267,0.63147 -3.7888,1.8944 -3.63092,-1.10506 -7.104,-1.6576 -10.57707,-1.6576 -9.78772,0 -15.1552,4.18347 -15.1552,11.3664 0,6.15679 4.34135,9.62987 13.2608,10.8928 8.36693,1.184 11.99787,1.184 11.99787,4.81494 0,2.05226 -2.05227,3.86773 -6.07787,3.86773 -4.26239,0 -7.49867,-1.10507 -10.10347,-3.39413 -1.8944,-1.73654 -1.81546,-3.94667 -5.13066,-3.94667 -2.76266,0 -3.7888,1.26293 -3.7888,4.65707 v 5.2096 c 0,2.68373 0.55254,4.18346 3.0784,4.18346 1.4208,0 2.76266,-0.55253 4.18346,-1.57866"
         style="font-style:normal;font-variant:normal;font-weight:bold;font-stretch:normal;font-size:74px;line-height:0%;font-family:'Courier 10 Pitch';-inkscape-font-specification:'Courier 10 Pitch Bold';text-align:start;letter-spacing:-2.5px;word-spacing:0px;writing-mode:lr-tb;text-anchor:start;fill:#ffffff;fill-opacity:1;stroke:none;stroke-width:1.06666672"
         id="path4392"
         inkscape:connector-curvature="0" />
      <path
         d="m 285.4168,835.13022 h 3.63093 v 9.86667 c 0,0.31573 0,0.63146 0,0.86826 0,4.65706 0.0789,8.20907 2.368,10.8928 2.21014,2.6048 6.23574,4.18347 11.68214,4.18347 9.55092,0 17.60213,-4.26241 17.60213,-7.73547 0,-2.68373 -1.81547,-4.42026 -3.86773,-4.42026 -3.3152,0 -7.10401,3.47306 -12.5504,3.47306 -4.57814,0 -5.76214,-2.21014 -5.76214,-7.26186 v -9.86667 h 11.76107 c 3.23627,0 4.89387,-1.02613 4.89387,-4.2624 0,-3.23627 -1.6576,-4.18347 -4.89387,-4.18347 h -11.76107 v -8.9984 c 0,-3.3152 -1.18401,-4.81493 -4.81493,-4.81493 -2.99947,0 -4.65707,1.6576 -4.65707,3.23627 0,0.15786 0,0.63146 0,1.57866 v 8.9984 h -3.63093 c -3.23627,0 -4.81493,0.9472 -4.81493,4.18347 0,3.23627 1.57866,4.2624 4.81493,4.2624"
         style="font-style:normal;font-variant:normal;font-weight:bold;font-stretch:normal;font-size:74px;line-height:0%;font-family:'Courier 10 Pitch';-inkscape-font-specification:'Courier 10 Pitch Bold';text-align:start;letter-spacing:-2.5px;word-spacing:0px;writing-mode:lr-tb;text-anchor:start;fill:#ffffff;fill-opacity:1;stroke:none;stroke-width:1.06666672"
         id="path4394"
         inkscape:connector-curvature="0" />
      <path
         id="path4239"
         d="m 351.24152,829.80082 c 0,3.82917 -3.10416,6.93334 -6.93334,6.93334 -3.82917,0 -6.93333,-3.10417 -6.93333,-6.93334 0,-3.82917 3.10416,-6.93333 6.93333,-6.93333 3.82918,0 6.93334,3.10416 6.93334,6.93333 z"
         style="fill:#ffffff;fill-opacity:1;stroke:none;stroke-width:0.77085382"
         inkscape:connector-curvature="0" />
      <path
         id="path4241"
         d="m 374.70818,829.80082 c 0,3.82917 -3.10416,6.93334 -6.93333,6.93334 -3.82918,0 -6.93333,-3.10417 -6.93333,-6.93334 0,-3.82917 3.10415,-6.93333 6.93333,-6.93333 3.82917,0 6.93333,3.10416 6.93333,6.93333 z"
         style="fill:#ffffff;fill-opacity:1;stroke:none;stroke-width:0.77085382"
         inkscape:connector-curvature="0" />
      <path
         id="path4243"
         d="m 374.70818,853.26749 c 0,3.82917 -3.10416,6.93333 -6.93333,6.93333 -3.82918,0 -6.93333,-3.10416 -6.93333,-6.93333 0,-3.82918 3.10415,-6.93334 6.93333,-6.93334 3.82917,0 6.93333,3.10416 6.93333,6.93334 z"
         style="fill:#ffffff;fill-opacity:1;stroke:none;stroke-width:0.77085382"
         inkscape:connector-curvature="0" />
      <path
         id="path4245"
         d="m 351.24152,853.26749 c 0,3.82917 -3.10416,6.93333 -6.93334,6.93333 -3.82917,0 -6.93333,-3.10416 -6.93333,-6.93333 0,-3.82918 3.10416,-6.93334 6.93333,-6.93334 3.82918,0 6.93334,3.10416 6.93334,6.93334 z"
         style="fill:#ffffff;fill-opacity:1;stroke:none;stroke-width:0.77085382"
         inkscape:connector-curvature="0" />
      <text
         xml:space="preserve"
         style="font-style:normal;font-variant:normal;font-weight:bold;font-stretch:normal;font-size:12.80000019px;line-height:0%;font-family:'Courier New';-inkscape-font-specification:'Courier New, Bold';text-align:start;letter-spacing:0px;word-spacing:0px;writing-mode:lr-tb;text-anchor:start;fill:#ffffff;fill-opacity:1;stroke:none;stroke-width:1.06666672px;stroke-linecap:butt;stroke-linejoin:miter;stroke-opacity:1"
         x="230.71976"
         y="896.12524"
         id="text4241-8"><tspan
           sodipodi:role="line"
           id="tspan4243-1"
           x="230.71976"
           y="896.12524"
           style="font-size:42.66666794px;line-height:0%;letter-spacing:0px;stroke-width:1.06666672px">S</tspan></text>
      <text
         xml:space="preserve"
         style="font-style:normal;font-variant:normal;font-weight:bold;font-stretch:normal;font-size:12.80000019px;line-height:0%;font-family:'Courier New';-inkscape-font-specification:'Courier New, Bold';text-align:start;letter-spacing:0px;word-spacing:0px;writing-mode:lr-tb;text-anchor:start;fill:#ffffff;fill-opacity:1;stroke:none;stroke-width:1.06666672px;stroke-linecap:butt;stroke-linejoin:miter;stroke-opacity:1"
         x="259.79553"
         y="896.75024"
         id="text4241-8-5"><tspan
           sodipodi:role="line"
           id="tspan4243-1-0"
           x="259.79553"
           y="896.75024"
           style="font-size:42.66666794px;line-height:0%;letter-spacing:0px;stroke-width:1.06666672px">P</tspan></text>
      <text
         xml:space="preserve"
         style="font-style:normal;font-variant:normal;font-weight:bold;font-stretch:normal;font-size:12.80000019px;line-height:0%;font-family:'Courier New';-inkscape-font-specification:'Courier New, Bold';text-align:start;letter-spacing:0px;word-spacing:0px;writing-mode:lr-tb;text-anchor:start;fill:#ffffff;fill-opacity:1;stroke:none;stroke-width:1.06666672px;stroke-linecap:butt;stroke-linejoin:miter;stroke-opacity:1"
         x="290.37137"
         y="896.12524"
         id="text4241-8-8"><tspan
           sodipodi:role="line"
           id="tspan4243-1-3"
           x="290.37137"
           y="896.12524"
           style="font-size:42.66666794px;line-height:0%;letter-spacing:0px;stroke-width:1.06666672px">O</tspan><tspan
           sodipodi:role="line"
           x="290.37137"
           y="903.64819"
           style="font-size:42.66666794px;line-height:0%;letter-spacing:0px;stroke-width:1.06666672px"
           id="tspan4301"> </tspan></text>
      <text
         xml:space="preserve"
         style="font-style:normal;font-variant:normal;font-weight:bold;font-stretch:normal;font-size:12.80000019px;line-height:0%;font-family:'Courier New';-inkscape-font-specification:'Courier New, Bold';text-align:start;letter-spacing:0px;word-spacing:0px;writing-mode:lr-tb;text-anchor:start;fill:#ffffff;fill-opacity:1;stroke:none;stroke-width:1.06666672px;stroke-linecap:butt;stroke-linejoin:miter;stroke-opacity:1"
         x="319.45752"
         y="896.75024"
         id="text4241-8-2"><tspan
           sodipodi:role="line"
           id="tspan4243-1-1"
           x="319.45752"
           y="896.75024"
           style="font-size:42.66666794px;line-height:0%;letter-spacing:0px;stroke-width:1.06666672px">R </tspan></text>
      <text
         xml:space="preserve"
         style="font-style:normal;font-variant:normal;font-weight:bold;font-stretch:normal;font-size:12.80000019px;line-height:0%;font-family:'Courier New';-inkscape-font-specification:'Courier New, Bold';text-align:start;letter-spacing:0px;word-spacing:0px;writing-mode:lr-tb;text-anchor:start;fill:#ffffff;fill-opacity:1;stroke:none;stroke-width:1.06666672px;stroke-linecap:butt;stroke-linejoin:miter;stroke-opacity:1"
         x="350.72079"
         y="896.75024"
         id="text4241-8-7"><tspan
           sodipodi:role="line"
           id="tspan4243-1-8"
           x="350.72079"
           y="896.75024"
           style="font-size:42.66666794px;line-height:0%;letter-spacing:0px;stroke-width:1.06666672px">E</tspan></text>
      <text
         xml:space="preserve"
         style="font-style:normal;font-variant:normal;font-weight:bold;font-stretch:normal;font-size:12.80000019px;line-height:0%;font-family:'Courier New';-inkscape-font-specification:'Courier New, Bold';text-align:start;letter-spacing:0px;word-spacing:0px;writing-mode:lr-tb;text-anchor:start;fill:#ffffff;fill-opacity:1;stroke:none;stroke-width:1.06666672px;stroke-linecap:butt;stroke-linejoin:miter;stroke-opacity:1"
         x="210.74884"
         y="892.58362"
         id="text4241-8-3"><tspan
           sodipodi:role="line"
           id="tspan4243-1-4"
           x="210.74884"
           y="892.58362"
           style="font-style:normal;font-variant:normal;font-weight:bold;font-stretch:normal;font-size:32px;line-height:0%;font-family:'Courier New';-inkscape-font-specification:'Courier New, Bold';text-align:start;letter-spacing:0px;writing-mode:lr-tb;text-anchor:start;stroke-width:1.06666672px">+</tspan></text>
    </g>
  </g>
</svg>
