<?xml version="1.0" encoding="UTF-8" standalone="no"?>
<!-- Created with Inkscape (http://www.inkscape.org/) -->

<svg
   xmlns:dc="http://purl.org/dc/elements/1.1/"
   xmlns:cc="http://creativecommons.org/ns#"
   xmlns:rdf="http://www.w3.org/1999/02/22-rdf-syntax-ns#"
   xmlns:svg="http://www.w3.org/2000/svg"
   xmlns="http://www.w3.org/2000/svg"
   xmlns:sodipodi="http://sodipodi.sourceforge.net/DTD/sodipodi-0.dtd"
   xmlns:inkscape="http://www.inkscape.org/namespaces/inkscape"
   width="586.77332"
   height="105.86266"
   id="svg3876"
   version="1.1"
   inkscape:version="0.92.1 r"
   sodipodi:docname="nest-spore-header.svg">
  <defs
     id="defs3878" />
  <sodipodi:namedview
     id="base"
     pagecolor="#ffffff"
     bordercolor="#666666"
     borderopacity="1.0"
     inkscape:pageopacity="0.0"
     inkscape:pageshadow="2"
     inkscape:zoom="1.4"
     inkscape:cx="181.34368"
     inkscape:cy="21.516622"
     inkscape:document-units="px"
     inkscape:current-layer="g4411"
     showgrid="false"
     fit-margin-top="0"
     fit-margin-left="0"
     fit-margin-right="0"
     fit-margin-bottom="0"
     inkscape:window-width="1920"
     inkscape:window-height="1147"
     inkscape:window-x="0"
     inkscape:window-y="29"
     inkscape:window-maximized="1"
     showguides="false"
     inkscape:guide-bbox="true" />
  <metadata
     id="metadata3881">
    <rdf:RDF>
      <cc:Work
         rdf:about="">
        <dc:format>image/svg+xml</dc:format>
        <dc:type
           rdf:resource="http://purl.org/dc/dcmitype/StillImage" />
        <dc:title />
      </cc:Work>
    </rdf:RDF>
  </metadata>
  <g
     inkscape:label="Layer 1"
     inkscape:groupmode="layer"
     id="layer1"
     transform="translate(-407.28867,-591.11214)">
    <g
       transform="translate(272.85362,-210.28572)"
       id="g4411">
      <path
         id="path4233"
         style="fill:#ff6633;fill-opacity:1;fill-rule:nonzero;stroke:none;stroke-width:1.06666672"
         d="m 721.20806,890.52052 c 0,8.63334 -6.89333,16.74 -15.40133,16.74 H 134.43612 l -10e-4,-90.232 c 0,-8.632 6.89467,-15.63066 15.40267,-15.63066 H 705.807 c 8.508,0 15.40133,6.99866 15.40133,15.63066 v 73.492 z"
         inkscape:connector-curvature="0"
         sodipodi:nodetypes="csccssscc" />
      <path
         d="m 206.88673,867.07613 v -13.99418 c 0,-10.98929 -4.20685,-16.48394 -13.30735,-16.48394 -5.32293,0 -9.18637,2.06049 -11.84784,6.09562 v -3.26245 c 0,-1.1161 -0.77268,-1.80293 -2.40391,-1.80293 h -7.12587 c -3.52,0 -5.23709,1.1161 -5.23709,4.63611 0,3.00489 1.54539,4.55025 4.55025,4.55025 0.17171,0 0.42927,0 0.68684,0 v 20.26152 c -0.17171,0 -0.34341,0 -0.51513,0 -3.17657,0 -4.72196,1.54537 -4.72196,4.6361 0,3.43417 1.63123,4.63612 5.23709,4.63612 h 10.38832 c 3.60587,0 5.23709,-1.20195 5.23709,-4.63612 0,-3.09073 -1.54538,-4.6361 -4.72196,-4.6361 -0.17172,0 -0.34342,0 -0.51513,0 v -12.1054 c 0,-5.92391 3.52002,-9.27221 7.89856,-9.27221 4.80782,0 6.09563,3.17658 6.09563,9.27221 v 12.1054 c -0.17172,0 -0.34343,0 -0.51513,0 -3.17659,0 -4.80782,1.54537 -4.80782,4.6361 0,3.43417 1.71709,4.63612 5.32295,4.63612 h 10.30246 c 3.60586,0 5.23709,-1.20195 5.23709,-4.63612 0,-3.09073 -1.54538,-4.6361 -4.72196,-4.6361 -0.17172,0 -0.34343,0 -0.51513,0"
         style="font-style:normal;font-variant:normal;font-weight:bold;font-stretch:normal;font-size:74px;line-height:0%;font-family:'Courier 10 Pitch';-inkscape-font-specification:'Courier 10 Pitch Bold';text-align:start;letter-spacing:-2.5px;word-spacing:0px;writing-mode:lr-tb;text-anchor:start;fill:#ffffff;fill-opacity:1;stroke:none;stroke-width:1.06666672"
         id="path4388"
         inkscape:connector-curvature="0" />
      <path
         d="m 226.61413,859.43514 h 27.04397 c 4.37854,0 6.09563,-0.601 6.09563,-4.2927 0,-9.78734 -8.24199,-18.45859 -20.94835,-18.45859 -13.90831,0 -22.83713,8.75711 -22.83713,20.34737 0,11.59027 9.01466,20.34737 22.83713,20.34737 12.27709,0 20.26152,-4.80783 20.26152,-9.61562 0,-2.48978 -1.54537,-4.121 -3.77758,-4.121 -3.09073,0 -7.12587,5.06538 -16.14052,5.06538 -6.95417,0 -11.07516,-3.0049 -12.53467,-9.27221 m 0,-6.5249 c 1.45951,-5.49465 5.15124,-8.15612 11.24686,-8.15612 6.26732,0 10.38832,2.91903 11.33271,8.15612 h -22.57957"
         style="font-style:normal;font-variant:normal;font-weight:bold;font-stretch:normal;font-size:74px;line-height:0%;font-family:'Courier 10 Pitch';-inkscape-font-specification:'Courier 10 Pitch Bold';text-align:start;letter-spacing:-2.5px;word-spacing:0px;writing-mode:lr-tb;text-anchor:start;fill:#ffffff;fill-opacity:1;stroke:none;stroke-width:1.06666672"
         id="path4390"
         inkscape:connector-curvature="0" />
      <path
         d="m 275.70355,875.83323 c 4.03513,1.11609 8.07027,1.54536 12.44881,1.54536 11.76198,0 18.02931,-4.97953 18.02931,-13.13564 0,-8.24196 -5.92392,-10.73173 -16.65564,-12.2771 -7.55514,-1.1161 -10.9893,-0.77269 -10.9893,-4.37855 0,-2.40391 2.31806,-4.03513 6.8683,-4.03513 7.55515,0 9.95907,6.00977 14.16589,6.00977 2.23221,0 3.60587,-1.37366 3.60587,-3.77758 v -5.15123 c 0,-2.83317 -1.1161,-4.29269 -3.43416,-4.29269 -1.63122,0 -3.00488,0.68683 -4.12098,2.06049 -3.94927,-1.20195 -7.72686,-1.80292 -11.50442,-1.80292 -10.64587,0 -16.48395,4.55025 -16.48395,12.36295 0,6.69659 4.72197,10.47418 14.42346,11.84784 9.10051,1.28781 13.04979,1.28781 13.04979,5.23709 0,2.23219 -2.2322,4.20684 -6.61075,4.20684 -4.6361,0 -8.15612,-1.20196 -10.98931,-3.69173 -2.06049,-1.88878 -1.97463,-4.29269 -5.5805,-4.29269 -3.00487,0 -4.12098,1.37366 -4.12098,5.06539 v 5.66635 c 0,2.91903 0.60099,4.55025 3.3483,4.55025 1.54538,0 3.00489,-0.60098 4.55026,-1.71707"
         style="font-style:normal;font-variant:normal;font-weight:bold;font-stretch:normal;font-size:74px;line-height:0%;font-family:'Courier 10 Pitch';-inkscape-font-specification:'Courier 10 Pitch Bold';text-align:start;letter-spacing:-2.5px;word-spacing:0px;writing-mode:lr-tb;text-anchor:start;fill:#ffffff;fill-opacity:1;stroke:none;stroke-width:1.06666672"
         id="path4392"
         inkscape:connector-curvature="0" />
      <path
         d="m 318.35393,849.13267 h 3.94928 v 10.73174 c 0,0.34341 0,0.68682 0,0.94439 0,5.06537 0.0859,8.9288 2.57562,11.84783 2.40391,2.83318 6.78246,4.55026 12.70638,4.55026 10.3883,0 19.14541,-4.63613 19.14541,-8.41368 0,-2.91903 -1.97464,-4.80782 -4.20683,-4.80782 -3.60587,0 -7.72687,3.77758 -13.65078,3.77758 -4.97952,0 -6.26732,-2.40393 -6.26732,-7.89856 v -10.73174 h 12.79222 c 3.52001,0 5.32294,-1.1161 5.32294,-4.63612 0,-3.52001 -1.80293,-4.55025 -5.32294,-4.55025 h -12.79222 v -9.78735 c 0,-3.60585 -1.28783,-5.23707 -5.23709,-5.23707 -3.26246,0 -5.06539,1.80292 -5.06539,3.52 0,0.17171 0,0.68683 0,1.71707 v 9.78735 h -3.94928 c -3.52,0 -5.23708,1.03024 -5.23708,4.55025 0,3.52002 1.71708,4.63612 5.23708,4.63612"
         style="font-style:normal;font-variant:normal;font-weight:bold;font-stretch:normal;font-size:74px;line-height:0%;font-family:'Courier 10 Pitch';-inkscape-font-specification:'Courier 10 Pitch Bold';text-align:start;letter-spacing:-2.5px;word-spacing:0px;writing-mode:lr-tb;text-anchor:start;fill:#ffffff;fill-opacity:1;stroke:none;stroke-width:1.06666672"
         id="path4394"
         inkscape:connector-curvature="0" />
      <path
         id="path4239"
         d="m 389.94989,843.33602 c 0,4.16489 -3.37632,7.54121 -7.54122,7.54121 -4.16489,0 -7.54121,-3.37632 -7.54121,-7.54121 0,-4.16491 3.37632,-7.54123 7.54121,-7.54123 4.1649,0 7.54122,3.37632 7.54122,7.54123 z"
         style="fill:#ffffff;fill-opacity:1;stroke:none;stroke-width:1.06666672"
         inkscape:connector-curvature="0" />
      <path
         id="path4241"
         d="m 415.47402,843.33602 c 0,4.16489 -3.37632,7.54121 -7.54122,7.54121 -4.1649,0 -7.54122,-3.37632 -7.54122,-7.54121 0,-4.16491 3.37632,-7.54123 7.54122,-7.54123 4.1649,0 7.54122,3.37632 7.54122,7.54123 z"
         style="fill:#ffffff;fill-opacity:1;stroke:none;stroke-width:1.06666672"
         inkscape:connector-curvature="0" />
      <path
         id="path4243"
         d="m 415.47402,868.86015 c 0,4.16488 -3.37632,7.5412 -7.54122,7.5412 -4.1649,0 -7.54122,-3.37632 -7.54122,-7.5412 0,-4.16491 3.37632,-7.54123 7.54122,-7.54123 4.1649,0 7.54122,3.37632 7.54122,7.54123 z"
         style="fill:#ffffff;fill-opacity:1;stroke:none;stroke-width:1.06666672"
         inkscape:connector-curvature="0" />
      <path
         id="path4245"
         d="m 389.94989,868.86015 c 0,4.16488 -3.37632,7.5412 -7.54122,7.5412 -4.16489,0 -7.54121,-3.37632 -7.54121,-7.5412 0,-4.16491 3.37632,-7.54123 7.54121,-7.54123 4.1649,0 7.54122,3.37632 7.54122,7.54123 z"
         style="fill:#ffffff;fill-opacity:1;stroke:none;stroke-width:1.06666672"
         inkscape:connector-curvature="0" />
      <g
         style="font-style:normal;font-variant:normal;font-weight:bold;font-stretch:normal;font-size:67.90142822px;line-height:0%;font-family:'Courier New';-inkscape-font-specification:'Courier New, Bold';text-align:start;letter-spacing:0px;word-spacing:0px;writing-mode:lr-tb;text-anchor:start;fill:#ffffff;fill-opacity:1;stroke:none;stroke-width:1px;stroke-linecap:butt;stroke-linejoin:miter;stroke-opacity:1"
         id="text4241-8"
         transform="matrix(1.0413995,0,0,1.0413995,-19.50405,-34.797177)">
        <path
           d="m 440.95919,873.40839 q -0.95487,1.1317 -1.55608,1.44999 -0.56584,0.31828 -1.41461,0.31828 -1.66217,0 -2.68776,-1.09632 -0.99023,-1.13169 -0.99023,-3.71336 v -4.88041 q 0,-2.61703 0.99023,-3.71336 1.02559,-1.1317 2.68776,-1.1317 1.27315,0 2.12192,0.67195 0.88413,0.67194 1.34388,2.26338 0.45975,1.55608 0.95486,2.12192 1.0256,1.09632 3.64264,2.22801 2.61703,1.13169 5.72918,1.13169 4.84505,0 7.9572,-2.26338 1.98045,-1.37924 1.98045,-3.39507 0,-1.34388 -0.95486,-2.51093 -0.95486,-1.20242 -3.11215,-1.98046 -1.41462,-0.53049 -6.33039,-1.44999 -5.94138,-1.09632 -8.9828,-2.65239 -3.04142,-1.55607 -4.80968,-4.3853 -1.76827,-2.82923 -1.76827,-6.11821 0,-5.1987 4.34994,-9.08888 4.34993,-3.92555 11.31691,-3.92555 2.79385,0 5.16333,0.63657 2.40484,0.60121 4.34994,1.87436 1.41461,-1.37924 2.82922,-1.37924 1.59144,0 2.58167,1.13169 1.0256,1.09632 1.0256,3.67798 v 5.44627 q 0,2.61703 -1.0256,3.74872 -0.99023,1.09633 -2.58167,1.09633 -1.34388,0 -2.33411,-0.81341 -0.77804,-0.6012 -1.16706,-2.40484 -0.38901,-1.80363 -0.99023,-2.58166 -1.02559,-1.34389 -3.07678,-2.26338 -2.05119,-0.9195 -4.73895,-0.9195 -3.92555,0 -6.2243,1.83899 -2.26338,1.80363 -2.26338,3.78409 0,1.34388 0.9195,2.61703 0.95487,1.2378 2.75849,1.9451 1.20242,0.49512 6.75478,1.59144 5.58772,1.09633 8.55841,2.40484 3.00606,1.30852 4.98651,4.10238 1.98046,2.79387 1.98046,6.64868 0,5.37553 -3.78409,8.59377 -5.02188,4.24384 -12.80224,4.24384 -3.00606,0 -5.87065,-0.74266 -2.82923,-0.70731 -5.51699,-2.1573 z"
           style="line-height:0%;letter-spacing:0px;stroke-width:1.06666672px"
           id="path4190"
           inkscape:connector-curvature="0" />
      </g>
      <g
         style="font-style:normal;font-variant:normal;font-weight:bold;font-stretch:normal;font-size:67.90142822px;line-height:0%;font-family:'Courier New';-inkscape-font-specification:'Courier New, Bold';text-align:start;letter-spacing:0px;word-spacing:0px;writing-mode:lr-tb;text-anchor:start;fill:#ffffff;fill-opacity:1;stroke:none;stroke-width:1px;stroke-linecap:butt;stroke-linejoin:miter;stroke-opacity:1"
         id="text4241-8-5"
         transform="matrix(1.0413995,0,0,1.0413995,-19.50405,-34.797177)">
        <path
           d="m 496.71747,861.59635 v 7.46209 h 7.32062 q 2.61704,0 3.71337,1.02559 1.13169,0.99023 1.13169,2.61704 0,1.59144 -1.13169,2.61703 -1.09633,0.99023 -3.71337,0.99023 h -15.7022 q -2.61703,0 -3.74872,-0.99023 -1.09633,-1.02559 -1.09633,-2.65239 0,-1.59145 1.13169,-2.58168 1.13169,-1.02559 3.71336,-1.02559 h 1.13169 v -28.36299 h -1.13169 q -2.61703,0 -3.74872,-0.99023 -1.09633,-1.02559 -1.09633,-2.6524 0,-1.6268 1.09633,-2.61703 1.13169,-1.0256 3.74872,-1.0256 l 16.69243,0.0354 q 7.35599,0 11.6352,4.03165 4.31457,3.99628 4.31457,9.76083 0,3.18288 -1.44998,6.01211 -1.09632,2.12192 -3.678,4.20847 -2.5463,2.05119 -5.23407,3.11215 -2.65239,1.02558 -7.03769,1.02558 h -6.86088 z m 0,-7.24989 h 6.71942 q 4.73895,0 7.49745,-2.12192 2.79385,-2.15728 2.79385,-5.16333 0,-2.54631 -2.26338,-4.45604 -2.22801,-1.90972 -6.40112,-1.90972 h -8.34622 z"
           style="line-height:0%;letter-spacing:0px;stroke-width:1.06666672px"
           id="path4187"
           inkscape:connector-curvature="0" />
      </g>
      <g
         style="font-style:normal;font-variant:normal;font-weight:bold;font-stretch:normal;font-size:67.90142822px;line-height:0%;font-family:'Courier New';-inkscape-font-specification:'Courier New, Bold';text-align:start;letter-spacing:0px;word-spacing:0px;writing-mode:lr-tb;text-anchor:start;fill:#ffffff;fill-opacity:1;stroke:none;stroke-width:1px;stroke-linecap:butt;stroke-linejoin:miter;stroke-opacity:1"
         id="text4241-8-8"
         transform="matrix(1.0413995,0,0,1.0413995,-19.50405,-34.797177)">
        <path
           d="m 573.16452,853.81601 q 0,9.65473 -6.15357,16.09122 -6.11819,6.40112 -14.18149,6.40112 -7.24989,0 -13.08517,-5.34016 -7.21453,-6.61331 -7.21453,-17.15218 0,-10.53887 7.21453,-17.18755 5.83528,-5.34016 13.08517,-5.34016 8.0633,0 14.18149,6.43648 6.15357,6.40113 6.15357,16.09123 z m -7.24989,0 q 0,-6.61332 -3.99628,-10.92789 -3.99628,-4.34993 -9.08889,-4.34993 -5.05724,0 -9.05352,4.34993 -3.99628,4.34994 -3.99628,10.92789 0,6.57795 3.99628,10.92788 3.99628,4.31457 9.05352,4.31457 5.09261,0 9.08889,-4.31457 3.99628,-4.31457 3.99628,-10.92788 z"
           style="line-height:0%;letter-spacing:0px;stroke-width:1.06666672px"
           id="path4184"
           inkscape:connector-curvature="0" />
      </g>
      <g
         style="font-style:normal;font-variant:normal;font-weight:bold;font-stretch:normal;font-size:67.90142822px;line-height:0%;font-family:'Courier New';-inkscape-font-specification:'Courier New, Bold';text-align:start;letter-spacing:0px;word-spacing:0px;writing-mode:lr-tb;text-anchor:start;fill:#ffffff;fill-opacity:1;stroke:none;stroke-width:1px;stroke-linecap:butt;stroke-linejoin:miter;stroke-opacity:1"
         id="text4241-8-2"
         transform="matrix(1.0413995,0,0,1.0413995,-19.50405,-34.797177)">
        <path
           d="m 594.70685,859.93419 v 9.12425 h 2.61703 q 2.61704,0 3.71337,1.02559 1.13168,0.99023 1.13168,2.61704 0,1.59144 -1.13168,2.61703 -1.09633,0.99023 -3.71337,0.99023 h -10.99861 q -2.61704,0 -3.74873,-0.99023 -1.09633,-1.02559 -1.09633,-2.65239 0,-1.59145 1.13169,-2.58168 1.13169,-1.02559 3.71337,-1.02559 h 1.13169 v -28.36299 h -1.13169 q -2.61704,0 -3.74873,-0.99023 -1.09633,-1.02559 -1.09633,-2.6524 0,-1.6268 1.09633,-2.61703 1.13169,-1.0256 3.74873,-1.0256 l 16.4095,0.0354 q 7.67429,0 11.88276,3.81946 4.24384,3.78408 4.24384,9.23034 0,3.39507 -1.98046,6.18894 -1.98046,2.7585 -5.97674,4.91578 2.29874,2.01583 4.91578,5.16334 1.6268,2.01581 4.3853,6.29503 2.75849,0 3.64263,0.56584 1.59144,1.09632 1.59144,3.07678 0,1.59144 -1.09632,2.61703 -1.09633,0.99023 -3.71337,0.99023 h -4.13774 q -8.80597,-13.61564 -14.60587,-16.37414 h -7.17917 z m 0,-7.24989 h 5.65845 q 3.14751,0 5.62308,-0.95487 3.32435,-1.27315 4.45604,-2.68777 1.16706,-1.41461 1.16706,-2.79385 0,-2.05119 -2.19265,-3.7841 -2.19265,-1.76826 -6.40113,-1.76826 h -8.31085 z"
           style="line-height:0%;letter-spacing:0px;stroke-width:1.06666672px"
           id="path4181"
           inkscape:connector-curvature="0" />
      </g>
      <g
         style="font-style:normal;font-variant:normal;font-weight:bold;font-stretch:normal;font-size:67.90142822px;line-height:0%;font-family:'Courier New';-inkscape-font-specification:'Courier New, Bold';text-align:start;letter-spacing:0px;word-spacing:0px;writing-mode:lr-tb;text-anchor:start;fill:#ffffff;fill-opacity:1;stroke:none;stroke-width:1px;stroke-linecap:butt;stroke-linejoin:miter;stroke-opacity:1"
         id="text4241-8-7"
         transform="matrix(1.0413995,0,0,1.0413995,-19.50405,-34.797177)">
        <path
           d="m 647.81285,858.41348 v 10.64496 h 18.49607 v -3.92555 q 0,-2.61704 0.99023,-3.71336 1.0256,-1.13169 2.6524,-1.13169 1.59144,0 2.58167,1.13169 1.0256,1.09632 1.0256,3.71336 v 11.17544 h -34.12755 q -2.61703,0 -3.74872,-0.99023 -1.09633,-1.02559 -1.09633,-2.65239 0,-1.59145 1.13169,-2.58168 1.13169,-1.02559 3.71336,-1.02559 h 1.1317 v -28.36299 h -1.1317 q -2.61703,0 -3.74872,-0.99023 -1.09633,-1.02559 -1.09633,-2.6524 0,-1.6268 1.09633,-2.61703 1.13169,-1.0256 3.74872,-1.0256 l 32.5361,0.0354 v 11.03398 q 0,2.58167 -0.99023,3.71336 -0.99023,1.09633 -2.61703,1.09633 -1.62681,0 -2.6524,-1.09633 -0.99023,-1.09632 -0.99023,-3.71336 v -3.78409 h -16.90463 v 10.46814 h 6.36576 q 0,-2.82923 0.53048,-3.64263 1.09633,-1.7329 3.11215,-1.7329 1.59144,0 2.58167,1.13169 1.02559,1.09633 1.02559,3.71336 v 8.34622 q 0,2.36947 -0.56584,3.18287 -1.13169,1.66218 -3.04142,1.66218 -2.01582,0 -3.11215,-1.73291 -0.53048,-0.8134 -0.53048,-3.67798 h -6.36576 z"
           style="line-height:0%;letter-spacing:0px;stroke-width:1.06666672px"
           id="path4178"
           inkscape:connector-curvature="0" />
      </g>
    </g>
  </g>
</svg>
